# This file uses centimeters as units for non-parametric coordinates.

v -0.153264 5.383108 0.573646
v -0.271440 5.385035 0.519757
v -0.367368 5.380363 0.410942
v -0.165155 5.515301 0.561366
v -0.270833 5.514082 0.495749
v -0.382284 5.453647 0.391963
v -0.158404 5.527373 0.533218
v -0.244412 5.488740 0.469557
v -0.357079 5.446229 0.375728
v -0.125408 5.387245 0.537778
v -0.233490 5.369489 0.469372
v -0.346144 5.372755 0.375508
v 0.153264 5.383108 0.573646
v 0.271440 5.385035 0.519757
v 0.367368 5.380363 0.410942
v 0.165155 5.515301 0.561366
v 0.270833 5.514082 0.495749
v 0.382284 5.453647 0.391963
v 0.158404 5.527373 0.533218
v 0.244412 5.488740 0.469557
v 0.357079 5.446229 0.375728
v 0.125408 5.387245 0.537778
v 0.233490 5.369489 0.469372
v 0.346144 5.372755 0.375508
v -0.095914 5.254802 0.479024
v 0.095914 5.254802 0.479024
v -0.095914 6.104321 0.479024
v 0.095914 6.104321 0.479024
v -0.095914 5.917062 -0.520976
v 0.095914 5.917062 -0.520976
v -0.095914 5.370223 -0.530705
v 0.095914 5.370223 -0.530705
v -0.095914 6.339338 -0.020976
v 0.095914 6.339338 -0.020976
v -0.095914 6.286654 0.229024
v 0.095914 6.286654 0.229024
v 0.095914 6.263911 -0.270976
v -0.095914 6.263911 -0.270976
v 0.095914 6.010692 -0.020976
v 0.095914 5.312512 -0.025841
v -0.095914 5.312512 -0.025841
v -0.095914 6.010692 -0.020976
vt 0.375000 0.000000
vt 0.500000 0.000000
vt 0.625000 0.000000
vt 0.375000 0.250000
vt 0.500000 0.250000
vt 0.625000 0.250000
vt 0.375000 0.500000
vt 0.500000 0.500000
vt 0.625000 0.500000
vt 0.375000 0.750000
vt 0.500000 0.750000
vt 0.625000 0.750000
vt 0.375000 1.000000
vt 0.500000 1.000000
vt 0.625000 1.000000
vt 0.875000 0.000000
vt 0.875000 0.250000
vt 0.125000 0.000000
vt 0.125000 0.250000
vt 0.375000 0.000000
vt 0.500000 0.000000
vt 0.500000 0.250000
vt 0.375000 0.250000
vt 0.625000 0.000000
vt 0.625000 0.250000
vt 0.500000 0.500000
vt 0.375000 0.500000
vt 0.625000 0.500000
vt 0.500000 0.750000
vt 0.375000 0.750000
vt 0.625000 0.750000
vt 0.500000 1.000000
vt 0.375000 1.000000
vt 0.625000 1.000000
vt 0.875000 0.000000
vt 0.875000 0.250000
vt 0.125000 0.000000
vt 0.125000 0.250000
vt 0.375000 0.000000
vt 0.625000 0.000000
vt 0.625000 0.250000
vt 0.375000 0.250000
vt 0.375000 0.375000
vt 0.625000 0.375000
vt 0.625000 0.437500
vt 0.375000 0.437500
vt 0.375000 0.500000
vt 0.625000 0.500000
vt 0.625000 0.750000
vt 0.375000 0.750000
vt 0.875000 0.000000
vt 0.875000 0.250000
vt 0.812500 0.250000
vt 0.750000 0.250000
vt 0.687500 0.250000
vt 0.125000 0.000000
vt 0.312500 0.250000
vt 0.250000 0.250000
vt 0.187500 0.250000
vt 0.125000 0.250000
vt 0.375000 0.312500
vt 0.625000 0.312500
vt 0.750000 0.250000
vt 0.750000 0.000000
vt 0.250000 0.000000
vt 0.250000 0.250000
vn -0.468256 0.101694 0.877721
vn -0.468256 0.101694 0.877721
vn -0.594030 0.099114 0.798314
vn -0.594025 0.099114 0.798317
vn -0.726841 0.093165 0.680457
vn -0.726841 0.093165 0.680457
vn -0.029585 0.966715 -0.254138
vn -0.029585 0.966715 -0.254138
vn 0.046120 0.897345 -0.438913
vn 0.043535 0.900416 -0.432846
vn 0.089552 0.838077 -0.538153
vn 0.089552 0.838077 -0.538153
vn 0.545199 0.078234 -0.834648
vn 0.545199 0.078234 -0.834648
vn 0.586262 0.075950 -0.806553
vn 0.580222 0.076303 -0.810876
vn 0.630770 0.073152 -0.772514
vn 0.630770 0.073152 -0.772514
vn -0.001073 -0.991472 0.130315
vn -0.001073 -0.991472 0.130315
vn -0.079263 -0.986024 0.146544
vn -0.078915 -0.986062 0.146473
vn -0.149237 -0.975712 0.160354
vn -0.149237 -0.975712 0.160354
vn -0.756755 -0.212326 -0.618255
vn -0.756755 -0.212326 -0.618255
vn -0.756755 -0.212326 -0.618255
vn -0.756755 -0.212326 -0.618255
vn 0.848020 0.170803 0.501686
vn 0.848020 0.170803 0.501686
vn 0.848020 0.170803 0.501686
vn 0.848020 0.170803 0.501686
vn 0.468256 0.101694 0.877721
vn 0.594026 0.099115 0.798316
vn 0.594031 0.099114 0.798313
vn 0.468256 0.101694 0.877721
vn 0.726843 0.093165 0.680455
vn 0.726843 0.093165 0.680455
vn 0.029585 0.966715 -0.254138
vn -0.043535 0.900415 -0.432848
vn -0.046120 0.897345 -0.438914
vn 0.029585 0.966715 -0.254138
vn -0.089551 0.838075 -0.538155
vn -0.089551 0.838075 -0.538155
vn -0.545199 0.078234 -0.834648
vn -0.580222 0.076303 -0.810876
vn -0.586262 0.075950 -0.806553
vn -0.545199 0.078234 -0.834648
vn -0.630770 0.073152 -0.772514
vn -0.630770 0.073152 -0.772514
vn 0.001073 -0.991472 0.130319
vn 0.078915 -0.986061 0.146476
vn 0.079263 -0.986023 0.146547
vn 0.001073 -0.991472 0.130319
vn 0.149237 -0.975712 0.160356
vn 0.149237 -0.975712 0.160356
vn 0.756754 -0.212326 -0.618257
vn 0.756754 -0.212326 -0.618257
vn 0.756754 -0.212326 -0.618257
vn 0.756754 -0.212326 -0.618257
vn -0.848021 0.170803 0.501684
vn -0.848021 0.170803 0.501684
vn -0.848021 0.170803 0.501684
vn -0.848021 0.170803 0.501684
vn 0.000000 0.000000 1.000000
vn 0.000000 0.000000 1.000000
vn 0.000000 0.000000 1.000000
vn 0.000000 0.000000 1.000000
vn 0.000000 0.957376 -0.288845
vn 0.000000 0.957376 -0.288845
vn 0.000000 0.957376 -0.288845
vn 0.000000 0.957376 -0.288845
vn 0.000000 0.017788 -0.999842
vn 0.000000 0.017788 -0.999842
vn 0.000000 0.017788 -0.999842
vn 0.000000 0.017788 -0.999842
vn 1.000000 -0.000000 0.000000
vn 1.000000 -0.000000 0.000000
vn 1.000000 -0.000000 0.000000
vn 1.000000 -0.000000 0.000000
vn -1.000000 0.000000 0.000000
vn -1.000000 0.000000 0.000000
vn -1.000000 0.000000 0.000000
vn -1.000000 0.000000 0.000000
vn 0.000000 0.978509 0.206207
vn 0.000000 0.978509 0.206207
vn 0.000000 0.978509 0.206207
vn 0.000000 0.978509 0.206207
vn 0.000000 0.807945 0.589257
vn 0.000000 0.807945 0.589257
vn 0.000000 0.807945 0.589257
vn 0.000000 0.807945 0.589257
vn 0.000000 0.584718 -0.811237
vn 0.000000 0.584718 -0.811237
vn 0.000000 0.584718 -0.811237
vn 0.000000 0.584718 -0.811237
vn -1.000000 0.000000 0.000000
vn -1.000000 0.000000 0.000000
vn -1.000000 0.000000 0.000000
vn -1.000000 0.000000 0.000000
vn 1.000000 0.000000 0.000000
vn 1.000000 0.000000 0.000000
vn 1.000000 0.000000 0.000000
vn 1.000000 0.000000 0.000000
vn 1.000000 0.000000 0.000000
vn 1.000000 0.000000 0.000000
vn 1.000000 0.000000 0.000000
vn 1.000000 0.000000 0.000000
vn 1.000000 0.000000 0.000000
vn 1.000000 0.000000 0.000000
vn 1.000000 0.000000 0.000000
vn 1.000000 0.000000 0.000000
vn -1.000000 0.000000 0.000000
vn -1.000000 0.000000 0.000000
vn -1.000000 0.000000 0.000000
vn -1.000000 0.000000 0.000000
vn -1.000000 0.000000 0.000000
vn -1.000000 0.000000 0.000000
vn -1.000000 0.000000 0.000000
vn -1.000000 0.000000 0.000000
s 1
f 1/1/1 4/4/2 5/5/3 2/2/4
f 2/2/4 5/5/3 6/6/5 3/3/6
s 2
f 4/4/7 7/7/8 8/8/9 5/5/10
f 5/5/10 8/8/9 9/9/11 6/6/12
s 3
f 7/7/13 10/10/14 11/11/15 8/8/16
f 8/8/16 11/11/15 12/12/17 9/9/18
s 4
f 10/10/19 1/13/20 2/14/21 11/11/22
f 11/11/22 2/14/21 3/15/23 12/12/24
s off
f 3/3/25 6/6/26 9/17/27 12/16/28
f 10/18/29 7/19/30 4/4/31 1/1/32
s 5
f 13/20/33 14/21/34 17/22/35 16/23/36
f 14/21/34 15/24/37 18/25/38 17/22/35
s 6
f 16/23/39 17/22/40 20/26/41 19/27/42
f 17/22/40 18/25/43 21/28/44 20/26/41
s 7
f 19/27/45 20/26/46 23/29/47 22/30/48
f 20/26/46 21/28/49 24/31/50 23/29/47
s 8
f 22/30/51 23/29/52 14/32/53 13/33/54
f 23/29/52 24/31/55 15/34/56 14/32/53
s off
f 15/24/57 24/35/58 21/36/59 18/25/60
f 22/37/61 13/20/62 16/23/63 19/38/64
f 25/39/65 26/40/66 28/41/67 27/42/68
f 33/43/69 34/44/70 37/45/71 38/46/72
f 29/47/73 30/48/74 32/49/75 31/50/76
f 39/63/77 30/52/78 37/53/79 34/54/80
f 29/60/81 42/66/82 33/58/83 38/59/84
f 35/61/85 36/62/86 34/44/87 33/43/88
f 27/42/89 28/41/90 36/62/91 35/61/92
f 38/46/93 37/45/94 30/48/95 29/47/96
f 31/56/97 41/65/98 42/66/99 29/60/100
f 40/64/101 32/51/102 30/52/103 39/63/104
f 28/41/105 39/63/106 34/54/107 36/55/108
f 26/40/109 40/64/110 39/63/111 28/41/112
f 42/66/113 41/65/114 25/39/115 27/42/116
f 33/58/117 42/66/118 27/42/119 35/57/120
