# This file uses centimeters as units for non-parametric coordinates.

v 0.150627 0.337090 0.188230
v 0.404952 0.337090 0.168656
v -0.000000 2.158913 0.219288
v 0.404952 2.251278 0.186615
v 0.000000 2.799191 0.301228
v 0.363184 2.799191 0.193602
v 0.460093 2.799191 -0.099517
v 0.000000 2.799191 -0.475908
v 0.314357 2.799191 -0.385868
v -0.000000 2.158913 -0.395789
v 0.372756 2.219648 -0.408734
v 0.150627 0.267948 -0.415353
v 0.372756 0.267948 -0.408734
v 0.068403 0.267948 -0.134615
v 0.527225 0.267948 -0.108681
v 0.536983 2.410428 -0.108681
v 0.094745 2.160756 -0.415353
v 0.094745 2.160756 0.206908
v 0.028106 2.160756 -0.134615
v -0.000000 2.153590 -0.134615
v 0.408308 2.503962 0.205507
v 0.554167 2.657695 -0.108681
v 0.389439 2.547550 -0.457698
v 0.249788 2.434451 0.256621
v -0.000000 2.414518 0.292439
v 0.197516 2.528250 -0.556264
v -0.000000 2.453492 -0.531628
v 0.187424 2.799191 -0.466050
v 0.236729 2.799191 0.258012
v 0.122686 1.282248 0.188230
v 0.040462 1.282248 -0.134498
v 0.122686 1.282248 -0.389794
v 0.372756 1.283646 -0.383176
v 0.527225 1.288174 -0.108681
v 0.404952 1.284396 0.168656
v 0.404952 1.139775 0.168656
v 0.127715 1.138013 0.188230
v 0.045492 1.138013 -0.134615
v 0.127715 1.138013 -0.406486
v 0.372756 1.139159 -0.399881
v 0.527225 1.142872 -0.108681
v 0.527225 1.448959 -0.108681
v 0.404952 1.447712 0.168656
v 0.117377 1.447003 0.188230
v 0.035154 1.447003 -0.134615
v 0.117377 1.447003 -0.405549
v 0.372756 1.447464 -0.399689
v 0.106061 1.670465 0.188230
v 0.023838 1.670465 -0.134615
v 0.106061 1.670465 -0.415353
v 0.372756 1.670611 -0.408734
v 0.527225 1.670812 -0.108681
v 0.404952 1.670689 0.168656
v 0.404952 0.592851 0.168656
v 0.139171 0.592919 0.188230
v 0.056948 0.595584 -0.134615
v 0.139171 0.595584 -0.415353
v 0.372756 0.595540 -0.408734
v 0.527225 0.595397 -0.108681
v 0.404952 1.943118 0.177635
v 0.100403 1.942697 0.197569
v 0.025972 1.942697 -0.134615
v 0.100403 1.942697 -0.415353
v 0.372756 1.942971 -0.408734
v 0.532104 1.943068 -0.108681
v 0.404952 0.900290 0.168656
v 0.133443 0.898968 0.188230
v 0.051220 0.881683 -0.134615
v 0.133443 0.881683 -0.410919
v 0.372756 0.882542 -0.404308
v 0.527225 0.885327 -0.108681
v 0.000000 2.797559 -0.556603
v 0.217426 2.797543 -0.550421
v 0.373401 2.797538 -0.455293
v 0.544138 2.797514 -0.116018
v 0.425156 2.797548 0.224815
v 0.274670 2.797563 0.297021
v 0.000000 2.797567 0.345696
v -0.150627 0.337090 0.188230
v -0.404952 0.337090 0.168656
v -0.404952 0.592851 0.168656
v -0.139171 0.592919 0.188230
v -0.094745 2.160756 0.206908
v -0.249788 2.434451 0.256621
v -0.217426 2.797543 -0.550421
v -0.373401 2.797538 -0.455293
v -0.389439 2.547550 -0.457698
v -0.197516 2.528250 -0.556264
v -0.150627 0.267948 -0.415353
v -0.372756 0.267948 -0.408734
v -0.527225 0.267948 -0.108681
v -0.068403 0.267948 -0.134615
v -0.372756 0.595540 -0.408734
v -0.527225 0.595397 -0.108681
v -0.554167 2.657695 -0.108681
v -0.544138 2.797514 -0.116018
v -0.408308 2.503962 0.205507
v -0.425156 2.797548 0.224815
v -0.139171 0.595584 -0.415353
v -0.056948 0.595584 -0.134615
v -0.028106 2.160756 -0.134615
v -0.094745 2.160756 -0.415353
v -0.404952 2.251278 0.186615
v -0.536983 2.410428 -0.108681
v -0.372756 2.219648 -0.408734
v -0.274670 2.797563 0.297021
v -0.122686 1.282248 0.188230
v -0.117377 1.447003 0.188230
v -0.035154 1.447003 -0.134615
v -0.040462 1.282248 -0.134498
v -0.122686 1.282248 -0.389794
v -0.117377 1.447003 -0.405549
v -0.372756 1.447464 -0.399689
v -0.372756 1.283646 -0.383176
v -0.527225 1.288174 -0.108681
v -0.527225 1.448959 -0.108681
v -0.404952 1.284396 0.168656
v -0.404952 1.447712 0.168656
v -0.127715 1.138013 0.188230
v -0.404952 1.139775 0.168656
v -0.045492 1.138013 -0.134615
v -0.127715 1.138013 -0.406486
v -0.372756 1.139159 -0.399881
v -0.527225 1.142872 -0.108681
v -0.527225 1.670812 -0.108681
v -0.404952 1.670689 0.168656
v -0.106061 1.670465 0.188230
v -0.023838 1.670465 -0.134615
v -0.106061 1.670465 -0.415353
v -0.372756 1.670611 -0.408734
v -0.100403 1.942697 0.197569
v -0.025972 1.942697 -0.134615
v -0.100403 1.942697 -0.415353
v -0.372756 1.942971 -0.408734
v -0.532104 1.943068 -0.108681
v -0.404952 1.943118 0.177635
v -0.404952 0.900290 0.168656
v -0.133443 0.898968 0.188230
v -0.051220 0.881683 -0.134615
v -0.133443 0.881683 -0.410919
v -0.372756 0.882542 -0.404308
v -0.527225 0.885327 -0.108681
v -0.187424 2.799191 -0.466050
v -0.314357 2.799191 -0.385868
v -0.460093 2.799191 -0.099517
v -0.363184 2.799191 0.193602
v -0.236729 2.799191 0.258012
vt 0.500000 0.000000
vt 0.625000 0.000000
vt 0.500000 0.125000
vt 0.625000 0.125000
vt 0.500000 0.250000
vt 0.625000 0.250000
vt 0.500000 0.500000
vt 0.625000 0.500000
vt 0.500000 0.625000
vt 0.625000 0.625000
vt 0.500000 0.750000
vt 0.625000 0.750000
vt 0.500000 0.875000
vt 0.625000 0.875000
vt 0.500000 1.000000
vt 0.625000 1.000000
vt 0.875000 0.000000
vt 0.750000 0.000000
vt 0.875000 0.125000
vt 0.750000 0.125000
vt 0.875000 0.250000
vt 0.750000 0.250000
vt 0.531250 0.640625
vt 0.531250 0.109375
vt 0.000000 0.000000
vt 1.000000 0.000000
vt 1.000000 1.000000
vt 0.000000 1.000000
vt 0.000000 0.000000
vt 1.000000 0.000000
vt 1.000000 1.000000
vt 0.000000 1.000000
vt 0.000000 0.000000
vt 1.000000 0.000000
vt 1.000000 1.000000
vt 0.000000 1.000000
vt 0.000000 0.000000
vt 1.000000 0.000000
vt 1.000000 1.000000
vt 0.000000 1.000000
vt 0.625000 0.187500
vt 0.750000 0.187500
vt 0.625000 0.562500
vt 0.875000 0.187500
vt 0.578125 0.148438
vt 0.500000 0.187500
vt 0.578125 0.601562
vt 0.500000 0.562500
vt 0.562500 0.500000
vt 0.562500 0.250000
vt 0.500000 0.000000
vt 0.515625 0.054688
vt 0.500000 0.000000
vt 0.500000 1.000000
vt 0.500000 1.000000
vt 0.515625 0.695312
vt 0.625000 0.687500
vt 0.875000 0.062500
vt 0.750000 0.062500
vt 0.625000 0.062500
vt 0.625000 0.051250
vt 0.410000 0.000000
vt 0.512812 0.044844
vt 0.410000 0.000000
vt 0.410000 1.000000
vt 0.410000 1.000000
vt 0.512812 0.705156
vt 0.625000 0.698750
vt 0.875000 0.051250
vt 0.750000 0.051250
vt 0.750000 0.074375
vt 0.625000 0.074375
vt 0.595000 0.000000
vt 0.518594 0.065078
vt 0.595000 0.000000
vt 0.595000 1.000000
vt 0.595000 1.000000
vt 0.518594 0.684922
vt 0.625000 0.675625
vt 0.875000 0.074375
vt 0.797500 0.000000
vt 0.524922 0.087227
vt 0.797500 0.000000
vt 0.797500 1.000000
vt 0.797500 1.000000
vt 0.524922 0.662773
vt 0.625000 0.650312
vt 0.875000 0.099688
vt 0.750000 0.099688
vt 0.625000 0.099688
vt 0.625000 0.025625
vt 0.205000 0.000000
vt 0.506406 0.022422
vt 0.205000 0.000000
vt 0.205000 1.000000
vt 0.205000 1.000000
vt 0.506406 0.727578
vt 0.625000 0.724375
vt 0.875000 0.025625
vt 0.750000 0.025625
vt 0.625000 0.112344
vt 0.898750 0.000000
vt 0.528086 0.098301
vt 0.898750 0.000000
vt 0.898750 1.000000
vt 0.898750 1.000000
vt 0.528086 0.651699
vt 0.625000 0.637656
vt 0.875000 0.112344
vt 0.750000 0.112344
vt 0.625000 0.038438
vt 0.307500 0.000000
vt 0.509609 0.033633
vt 0.307500 0.000000
vt 0.307500 1.000000
vt 0.307500 1.000000
vt 0.509609 0.716367
vt 0.625000 0.711563
vt 0.875000 0.038438
vt 0.750000 0.038438
vt 0.500000 0.509375
vt 0.564844 0.515234
vt 0.625000 0.509375
vt 0.875000 0.240625
vt 0.750000 0.240625
vt 0.625000 0.240625
vt 0.564844 0.234766
vt 0.500000 0.240625
vt 0.500000 0.000000
vt 0.625000 0.000000
vt 0.625000 0.025625
vt 0.506406 0.022422
vt 0.500000 0.125000
vt 0.531250 0.109375
vt 0.578125 0.148438
vt 0.500000 0.187500
vt 0.564844 0.515234
vt 0.625000 0.509375
vt 0.625000 0.562500
vt 0.578125 0.601562
vt 0.500000 0.750000
vt 0.625000 0.750000
vt 0.625000 0.875000
vt 0.500000 0.875000
vt 0.625000 1.000000
vt 0.500000 1.000000
vt 0.750000 0.000000
vt 0.875000 0.000000
vt 0.875000 0.025625
vt 0.750000 0.025625
vt 0.750000 0.187500
vt 0.875000 0.187500
vt 0.875000 0.240625
vt 0.750000 0.240625
vt 0.625000 0.187500
vt 0.625000 0.240625
vt 0.506406 0.727578
vt 0.625000 0.724375
vt 0.000000 0.000000
vt 0.205000 0.000000
vt 0.205000 1.000000
vt 0.000000 1.000000
vt 0.000000 0.000000
vt 0.205000 0.000000
vt 0.205000 1.000000
vt 0.000000 1.000000
vt 0.000000 0.000000
vt 1.000000 0.000000
vt 1.000000 1.000000
vt 0.000000 1.000000
vt 0.000000 0.000000
vt 1.000000 0.000000
vt 1.000000 1.000000
vt 0.000000 1.000000
vt 0.625000 0.125000
vt 0.750000 0.125000
vt 0.875000 0.125000
vt 0.531250 0.640625
vt 0.625000 0.625000
vt 0.564844 0.234766
vt 0.500000 0.240625
vt 0.500000 0.562500
vt 0.500000 0.625000
vt 0.500000 0.509375
vt 0.500000 0.000000
vt 0.595000 0.000000
vt 0.595000 1.000000
vt 0.500000 1.000000
vt 0.500000 1.000000
vt 0.500000 0.000000
vt 0.595000 0.000000
vt 0.595000 1.000000
vt 0.518594 0.684922
vt 0.625000 0.675625
vt 0.625000 0.687500
vt 0.515625 0.695312
vt 0.750000 0.062500
vt 0.875000 0.062500
vt 0.875000 0.074375
vt 0.750000 0.074375
vt 0.625000 0.062500
vt 0.625000 0.074375
vt 0.515625 0.054688
vt 0.518594 0.065078
vt 0.512812 0.044844
vt 0.625000 0.051250
vt 0.410000 1.000000
vt 0.410000 0.000000
vt 0.410000 1.000000
vt 0.410000 0.000000
vt 0.625000 0.698750
vt 0.512812 0.705156
vt 0.750000 0.051250
vt 0.875000 0.051250
vt 0.750000 0.099688
vt 0.625000 0.099688
vt 0.524922 0.087227
vt 0.797500 0.000000
vt 0.797500 1.000000
vt 0.797500 0.000000
vt 0.797500 1.000000
vt 0.524922 0.662773
vt 0.625000 0.650312
vt 0.875000 0.099688
vt 0.898750 0.000000
vt 0.898750 1.000000
vt 0.898750 0.000000
vt 0.898750 1.000000
vt 0.528086 0.651699
vt 0.625000 0.637656
vt 0.875000 0.112344
vt 0.750000 0.112344
vt 0.625000 0.112344
vt 0.528086 0.098301
vt 0.625000 0.038438
vt 0.509609 0.033633
vt 0.307500 0.000000
vt 0.307500 1.000000
vt 0.307500 0.000000
vt 0.307500 1.000000
vt 0.509609 0.716367
vt 0.625000 0.711563
vt 0.875000 0.038438
vt 0.750000 0.038438
vt 1.000000 0.000000
vt 1.000000 1.000000
vt 1.000000 0.000000
vt 1.000000 1.000000
vt 0.500000 0.500000
vt 0.562500 0.500000
vt 0.625000 0.500000
vt 0.875000 0.250000
vt 0.750000 0.250000
vt 0.625000 0.250000
vt 0.562500 0.250000
vt 0.500000 0.250000
vn -0.502112 -0.610357 0.612656
vn 0.441721 -0.634724 0.634041
vn 0.619994 0.000597 0.784607
vn -0.673004 -0.020325 0.739359
vn 0.152341 -0.575083 0.803786
vn -0.231867 -0.225364 0.946281
vn 0.211863 -0.161259 0.963903
vn 0.158669 -0.174206 0.971842
vn 0.212170 0.220914 -0.951935
vn 0.720672 0.307817 -0.621193
vn 0.720850 -0.106249 -0.684898
vn 0.173801 -0.169551 -0.970075
vn -0.495765 -0.652613 -0.572986
vn 0.486433 -0.628889 -0.606532
vn 0.748665 -0.662938 -0.003834
vn -0.001036 -0.993231 0.116150
vn 0.620138 0.004774 -0.784478
vn 0.997827 0.000980 -0.065884
vn 0.998551 -0.028864 -0.045410
vn 0.956883 0.286350 -0.048773
vn 0.739110 -0.090052 0.667539
vn 0.752874 0.157965 0.638927
vn -0.656746 -0.013806 -0.753985
vn -0.999595 -0.028076 -0.004658
vn -0.998773 -0.036947 -0.032982
vn -0.948022 -0.318206 -0.000030
vn 0.073111 -0.997324 0.000001
vn -0.209255 -0.248084 -0.945868
vn -0.009466 -0.641306 -0.767227
vn 0.706759 -0.064223 0.704534
vn 0.997086 -0.051572 -0.056206
vn 0.679656 -0.103434 -0.726202
vn 0.248500 -0.008111 0.968598
vn 0.163843 -0.024030 0.986194
vn -0.040301 -0.230337 -0.972276
vn -0.037654 0.224403 -0.973769
vn -0.639484 -0.022090 0.768487
vn -0.628493 -0.027720 0.777321
vn -0.998872 -0.047481 -0.000111
vn -0.999446 -0.033268 0.000125
vn -0.628955 -0.021519 -0.777143
vn -0.606415 -0.071848 -0.791896
vn 0.579494 -0.043133 -0.813834
vn 0.593566 0.000688 -0.804785
vn 0.998342 -0.000050 -0.057554
vn 0.998342 -0.009016 -0.056855
vn 0.590095 0.000655 0.807333
vn 0.582714 0.000831 0.812677
vn -0.652186 -0.018460 0.757835
vn 0.603965 0.000544 0.797011
vn -0.999722 -0.023426 -0.002850
vn -0.623374 0.019867 -0.781671
vn 0.593437 0.034416 -0.804144
vn 0.998061 0.007268 -0.061815
vn 0.998402 -0.009360 -0.055737
vn 0.581505 -0.015020 0.813405
vn -0.635004 -0.030064 0.771923
vn -0.999588 -0.028686 0.000080
vn -0.617337 -0.029046 -0.786163
vn 0.582617 -0.014927 -0.812610
vn -0.603454 -0.029253 0.796861
vn -0.999955 -0.009507 -0.000001
vn -0.601110 -0.004261 -0.799155
vn 0.627386 -0.004548 -0.778695
vn 0.998763 -0.010425 -0.048618
vn 0.631147 -0.025077 0.775257
vn 0.602289 0.000417 0.798278
vn -0.648608 -0.014149 0.760991
vn -0.999801 -0.019937 0.001003
vn -0.642650 -0.002806 -0.766154
vn 0.610272 0.010511 -0.792123
vn 0.998505 0.002178 -0.054609
vn 0.000822 0.999805 -0.019726
vn 0.004938 0.999827 -0.017921
vn 0.015397 0.999820 -0.011078
vn 0.019847 0.999802 -0.001101
vn 0.019390 0.999720 0.013545
vn 0.008566 0.999405 0.033420
vn 0.006475 0.999331 0.035989
vn 0.502112 -0.610357 0.612656
vn 0.673004 -0.020325 0.739359
vn -0.619994 0.000597 0.784607
vn -0.441721 -0.634724 0.634041
vn -0.152341 -0.575083 0.803786
vn -0.158669 -0.174206 0.971842
vn -0.211863 -0.161259 0.963903
vn 0.231867 -0.225364 0.946281
vn -0.212170 0.220914 -0.951936
vn -0.173801 -0.169551 -0.970075
vn -0.720850 -0.106250 -0.684898
vn -0.720672 0.307817 -0.621192
vn 0.495765 -0.652613 -0.572986
vn 0.001036 -0.993231 0.116150
vn -0.748665 -0.662938 -0.003834
vn -0.486433 -0.628889 -0.606532
vn -0.997827 0.000980 -0.065884
vn -0.620138 0.004774 -0.784478
vn -0.998551 -0.028864 -0.045410
vn -0.956883 0.286350 -0.048773
vn -0.739109 -0.090052 0.667539
vn -0.752874 0.157965 0.638927
vn 0.656746 -0.013806 -0.753985
vn 0.998773 -0.036947 -0.032982
vn 0.999595 -0.028076 -0.004658
vn 0.948022 -0.318205 -0.000030
vn -0.073111 -0.997324 0.000000
vn 0.209255 -0.248084 -0.945868
vn 0.009466 -0.641307 -0.767226
vn -0.706759 -0.064223 0.704534
vn -0.997086 -0.051572 -0.056206
vn -0.679656 -0.103434 -0.726202
vn -0.163843 -0.024030 0.986194
vn -0.248500 -0.008111 0.968598
vn 0.040301 -0.230337 -0.972276
vn 0.037654 0.224403 -0.973769
vn 0.639484 -0.022090 0.768487
vn 0.999446 -0.033268 0.000125
vn 0.998872 -0.047481 -0.000111
vn 0.628493 -0.027720 0.777321
vn 0.628955 -0.021519 -0.777144
vn 0.606415 -0.071848 -0.791896
vn -0.593566 0.000688 -0.804785
vn -0.579494 -0.043133 -0.813834
vn -0.998342 -0.000050 -0.057554
vn -0.998342 -0.009016 -0.056855
vn -0.590095 0.000655 0.807333
vn -0.582714 0.000831 0.812677
vn 0.652186 -0.018460 0.757835
vn -0.603965 0.000544 0.797011
vn 0.999722 -0.023426 -0.002850
vn 0.623374 0.019867 -0.781671
vn -0.593437 0.034416 -0.804144
vn -0.998061 0.007268 -0.061815
vn -0.581504 -0.015020 0.813405
vn -0.998402 -0.009360 -0.055738
vn 0.635004 -0.030064 0.771923
vn 0.999589 -0.028686 0.000080
vn 0.617336 -0.029046 -0.786163
vn -0.582617 -0.014927 -0.812610
vn 0.999955 -0.009507 -0.000001
vn 0.603454 -0.029253 0.796861
vn 0.601110 -0.004261 -0.799155
vn -0.627386 -0.004548 -0.778696
vn -0.998763 -0.010425 -0.048618
vn -0.631147 -0.025077 0.775258
vn 0.648608 -0.014149 0.760991
vn -0.602289 0.000417 0.798278
vn 0.999801 -0.019937 0.001003
vn 0.642650 -0.002806 -0.766154
vn -0.610272 0.010511 -0.792123
vn -0.998505 0.002178 -0.054609
vn -0.000822 0.999805 -0.019726
vn -0.004938 0.999827 -0.017921
vn -0.015397 0.999820 -0.011077
vn -0.019847 0.999802 -0.001100
vn -0.019390 0.999720 0.013545
vn -0.008566 0.999405 0.033420
vn -0.006475 0.999331 0.035989
s 1
f 1/1/1 2/2/2 54/91/3 55/93/4
f 3/3/5 18/24/6 24/45/7 25/46/8
f 73/122/9 74/123/10 23/43/11 26/47/12
f 12/11/13 13/12/14 15/14/15 14/13/16
f 14/13/16 15/14/15 2/16/2 1/15/1
f 15/18/15 13/17/14 58/99/17 59/100/18
f 2/2/2 15/18/15 59/100/18 54/91/3
f 22/42/19 23/44/11 74/124/10 75/125/20
f 21/41/21 22/42/19 75/125/20 76/126/22
f 57/97/23 58/98/17 13/12/14 12/11/13
f 1/25/1 55/92/4 56/95/24 14/28/25
f 14/29/25 56/94/24 57/96/23 12/32/13
f 19/33/26 18/34/6 3/35/5 20/36/27
f 17/37/28 19/38/26 20/39/27 10/40/29
f 21/41/21 24/45/7 18/24/6 4/4/30
f 4/4/30 16/20/31 22/42/19 21/41/21
f 16/20/31 11/19/32 23/44/11 22/42/19
f 17/23/28 26/47/12 23/43/11 11/10/32
f 25/46/8 24/45/7 77/127/33 78/128/34
f 27/48/35 26/47/12 17/23/28 10/9/29
f 72/121/36 73/122/9 26/47/12 27/48/35
f 77/127/33 24/45/7 21/41/21 76/126/22
f 30/51/37 44/73/38 45/76/39 31/54/40
f 32/55/41 31/53/40 45/75/39 46/77/42
f 46/78/42 47/79/43 33/57/44 32/56/41
f 34/59/45 33/58/44 47/80/43 42/71/46
f 35/60/47 34/59/45 42/71/46 43/72/48
f 30/52/37 35/60/47 43/72/48 44/74/38
f 37/63/49 36/61/50 35/60/47 30/52/37
f 38/65/51 37/62/49 30/51/37 31/54/40
f 39/66/52 38/64/51 31/53/40 32/55/41
f 32/56/41 33/57/44 40/68/53 39/67/52
f 41/70/54 40/69/53 33/58/44 34/59/45
f 36/61/50 41/70/54 34/59/45 35/60/47
f 43/72/48 42/71/46 52/89/55 53/90/56
f 44/74/38 43/72/48 53/90/56 48/82/57
f 45/76/39 44/73/38 48/81/57 49/84/58
f 46/77/42 45/75/39 49/83/58 50/85/59
f 50/86/59 51/87/60 47/79/43 46/78/42
f 42/71/46 47/80/43 51/88/60 52/89/55
f 49/84/58 48/81/57 61/102/61 62/105/62
f 50/85/59 49/83/58 62/104/62 63/106/63
f 63/107/63 64/108/64 51/87/60 50/86/59
f 52/89/55 51/88/60 64/109/64 65/110/65
f 53/90/56 52/89/55 65/110/65 60/101/66
f 48/82/57 53/90/56 60/101/66 61/103/61
f 55/93/4 54/91/3 66/111/67 67/113/68
f 56/95/24 55/92/4 67/112/68 68/115/69
f 57/96/23 56/94/24 68/114/69 69/116/70
f 69/117/70 70/118/71 58/98/17 57/97/23
f 59/100/18 58/99/17 70/119/71 71/120/72
f 54/91/3 59/100/18 71/120/72 66/111/67
f 61/103/61 60/101/66 4/4/30 18/24/6
f 62/105/62 61/102/61 18/26/6 19/27/26
f 63/106/63 62/104/62 19/30/26 17/31/28
f 17/23/28 11/10/32 64/108/64 63/107/63
f 65/110/65 64/109/64 11/19/32 16/20/31
f 60/101/66 65/110/65 16/20/31 4/4/30
f 67/113/68 66/111/67 36/61/50 37/63/49
f 68/115/69 67/112/68 37/62/49 38/65/51
f 69/116/70 68/114/69 38/64/51 39/66/52
f 39/67/52 40/68/53 70/118/71 69/117/70
f 71/120/72 70/119/71 40/69/53 41/70/54
f 66/111/67 71/120/72 41/70/54 36/61/50
f 8/7/73 28/49/74 73/122/9 72/121/36
f 28/49/74 9/8/75 74/123/10 73/122/9
f 75/125/20 74/124/10 9/21/75 7/22/76
f 76/126/22 75/125/20 7/22/76 6/6/77
f 29/50/78 77/127/33 76/126/22 6/6/77
f 78/128/34 77/127/33 29/50/78 5/5/79
s 6
f 79/129/80 82/132/81 81/131/82 80/130/83
f 3/133/84 25/136/85 84/135/86 83/134/87
f 85/137/88 88/140/89 87/139/90 86/138/91
f 89/141/92 92/144/93 91/143/94 90/142/95
f 92/144/93 79/146/80 80/145/83 91/143/94
f 91/147/94 94/150/96 93/149/97 90/148/95
f 80/130/83 81/131/82 94/150/96 91/147/94
f 95/151/98 96/154/99 86/153/91 87/152/90
f 97/155/100 98/156/101 96/154/99 95/151/98
f 99/157/102 89/141/92 90/142/95 93/158/97
f 79/159/80 92/162/103 100/161/104 82/160/81
f 92/163/103 89/166/92 99/165/102 100/164/104
f 101/167/105 20/170/106 3/169/84 83/168/87
f 102/171/107 10/174/108 20/173/106 101/172/105
f 97/155/100 103/175/109 83/134/87 84/135/86
f 103/175/109 97/155/100 95/151/98 104/176/110
f 104/176/110 95/151/98 87/152/90 105/177/111
f 102/178/107 105/179/111 87/139/90 88/140/89
f 25/136/85 78/181/112 106/180/113 84/135/86
f 27/182/114 10/183/108 102/178/107 88/140/89
f 72/184/115 27/182/114 88/140/89 85/137/88
f 106/180/113 98/156/101 97/155/100 84/135/86
f 107/185/116 110/188/117 109/187/118 108/186/119
f 111/189/120 112/192/121 109/191/118 110/190/117
f 112/193/121 111/196/120 114/195/122 113/194/123
f 115/197/124 116/200/125 113/199/123 114/198/122
f 117/201/126 118/202/127 116/200/125 115/197/124
f 107/203/116 108/204/119 118/202/127 117/201/126
f 119/205/128 107/203/116 117/201/126 120/206/129
f 121/207/130 110/188/117 107/185/116 119/208/128
f 122/209/131 111/189/120 110/190/117 121/210/130
f 111/196/120 122/212/131 123/211/132 114/195/122
f 124/213/133 115/197/124 114/198/122 123/214/132
f 120/206/129 117/201/126 115/197/124 124/213/133
f 118/202/127 126/216/134 125/215/135 116/200/125
f 108/204/119 127/217/136 126/216/134 118/202/127
f 109/187/118 128/219/137 127/218/136 108/186/119
f 112/192/121 129/221/138 128/220/137 109/191/118
f 129/222/138 112/193/121 113/194/123 130/223/139
f 116/200/125 125/215/135 130/224/139 113/199/123
f 128/219/137 132/226/140 131/225/141 127/218/136
f 129/221/138 133/228/142 132/227/140 128/220/137
f 133/229/142 129/222/138 130/223/139 134/230/143
f 125/215/135 135/232/144 134/231/143 130/224/139
f 126/216/134 136/233/145 135/232/144 125/215/135
f 127/217/136 131/234/141 136/233/145 126/216/134
f 82/132/81 138/236/146 137/235/147 81/131/82
f 100/161/104 139/238/148 138/237/146 82/160/81
f 99/165/102 140/240/149 139/239/148 100/164/104
f 140/241/149 99/157/102 93/158/97 141/242/150
f 94/150/96 142/244/151 141/243/150 93/149/97
f 81/131/82 137/235/147 142/244/151 94/150/96
f 131/234/141 83/134/87 103/175/109 136/233/145
f 132/226/140 101/246/105 83/245/87 131/225/141
f 133/228/142 102/248/107 101/247/105 132/227/140
f 102/178/107 133/229/142 134/230/143 105/179/111
f 135/232/144 104/176/110 105/177/111 134/231/143
f 136/233/145 103/175/109 104/176/110 135/232/144
f 138/236/146 119/205/128 120/206/129 137/235/147
f 139/238/148 121/207/130 119/208/128 138/237/146
f 140/240/149 122/209/131 121/210/130 139/239/148
f 122/212/131 140/241/149 141/242/150 123/211/132
f 142/244/151 124/213/133 123/214/132 141/243/150
f 137/235/147 120/206/129 124/213/133 142/244/151
f 8/249/152 72/184/115 85/137/88 143/250/153
f 143/250/153 85/137/88 86/138/91 144/251/154
f 96/154/99 145/253/155 144/252/154 86/153/91
f 98/156/101 146/254/156 145/253/155 96/154/99
f 147/255/157 146/254/156 98/156/101 106/180/113
f 78/181/112 5/256/158 147/255/157 106/180/113
