# This file uses centimeters as units for non-parametric coordinates.

v 0.453607 3.218284 -1.394237
v 0.000000 3.204736 -0.950375
v -0.504636 2.664377 -1.425750
v 0.000000 2.950925 -1.525553
v -0.453607 2.397360 -0.996766
v 0.489993 2.433844 -0.989500
v -0.455750 2.431546 -1.432944
v 0.453607 2.397362 -1.394240
v -0.453607 3.218282 -0.894863
v 0.453607 3.218282 -0.894863
v -0.453607 3.218284 -1.394237
v 0.000000 2.376842 -1.082547
v 0.504625 2.664206 -0.960746
v -0.504625 2.664206 -0.960746
v 0.504636 2.951261 -1.425749
v 0.000000 2.951079 -0.980753
v 0.000000 3.204796 -1.492815
v -0.504636 2.951261 -1.425749
v 0.470461 2.951326 -0.893457
v -0.504631 2.951346 -0.924905
v 0.470566 2.664422 -1.464192
v 0.000000 2.664511 -1.014629
v 0.000000 2.664722 -1.525555
v 0.489993 3.181800 -1.394701
v 0.455750 3.184100 -1.432940
v 0.000000 3.238806 -0.980652
v -0.470566 2.664422 -1.464192
v -0.455600 2.431645 -0.958162
v -0.489993 2.433844 -0.989500
v 0.455600 2.431645 -0.958162
v 0.453607 2.397360 -0.996766
v -0.453607 2.397362 -1.394240
v -0.489993 2.433845 -1.394705
v 0.455750 2.431546 -1.432944
v 0.489993 2.433845 -1.394705
v -0.489993 3.181798 -0.896139
v -0.455654 3.184056 -0.864369
v 0.455654 3.184056 -0.864369
v 0.489993 3.181798 -0.896139
v -0.455750 3.184100 -1.432940
v -0.489993 3.181800 -1.394701
v 0.000000 2.410850 -1.492819
v 0.000000 2.410948 -1.044210
v 0.470416 2.664223 -0.929117
v -0.470416 2.664223 -0.929117
v 0.470566 2.951224 -1.464191
v 0.000000 3.238821 -1.454022
v 0.000000 2.376826 -1.454025
v -0.470566 2.951224 -1.464191
v 0.504631 2.951346 -0.924905
v -0.470461 2.951326 -0.893457
v 0.504636 2.664377 -1.425750
v 0.000000 3.245331 -1.217337
v 0.486233 3.224490 -1.144550
v -0.486233 2.391154 -1.195503
v 0.486233 2.391154 -1.195503
v -0.525235 3.187455 -1.145420
v 0.540925 2.662121 -1.193248
v -0.540925 2.662121 -1.193248
v 0.000000 2.370316 -1.268286
v 0.540929 2.953473 -1.175327
v -0.540929 2.953473 -1.175327
v 0.525235 3.187455 -1.145420
v -0.525235 2.428189 -1.192102
v 0.525235 2.428189 -1.192102
v -0.486233 3.224490 -1.144550
vt 0.449799 0.200888
vt 0.283407 0.594705
vt 0.618333 0.200888
vt 0.618333 0.300003
vt 0.283407 0.363959
vt 0.808196 0.034639
vt 0.141538 0.034639
vt 0.286175 0.034639
vt 0.286175 0.122755
vt 0.642405 0.034639
vt 0.725907 0.034639
vt 0.725907 0.122755
vt 0.642405 0.122755
vt 0.018080 0.034639
vt 0.449799 0.122755
vt 0.267957 0.200888
vt 0.267957 0.300003
vt 0.205474 0.300003
vt 0.205474 0.200888
vt 0.789844 0.200889
vt 0.725907 0.200888
vt 0.125562 0.200889
vt 0.449799 0.300003
vt 0.957405 0.034639
vt 0.449799 0.034639
vt 0.018080 0.200888
vt 0.267957 0.122755
vt 0.205474 0.122755
vt 0.789844 0.122755
vt 0.125562 0.122755
vt 0.018080 0.122755
vt 0.273036 0.320216
vt 0.286175 0.300003
vt 0.791762 0.014220
vt 0.789844 0.034639
vt 0.125562 0.034639
vt 0.139618 0.014220
vt 0.618333 0.034639
vt 0.625766 0.014220
vt 0.273036 0.014220
vt 0.267957 0.034639
vt 0.793543 0.320216
vt 0.789844 0.300003
vt 0.808196 0.300003
vt 0.137840 0.320216
vt 0.125562 0.300003
vt 0.141538 0.300003
vt 0.625766 0.320216
vt 0.642405 0.300003
vt 0.449799 0.320216
vt 0.286175 0.200888
vt 0.205474 0.034639
vt 0.205474 0.014220
vt 0.500000 0.629476
vt 0.500000 0.500658
vt 0.618333 0.122755
vt 0.141538 0.200889
vt 0.808196 0.122755
vt 0.642405 0.200888
vt 0.018080 0.300003
vt 0.018080 0.320216
vt 0.957405 0.320216
vt 0.449799 0.014220
vt 0.018080 0.014220
vt 0.141538 0.122755
vt 0.808196 0.200889
vt 0.725907 0.300003
vt 0.205474 0.320216
vt 0.725907 0.014220
vt 0.716593 0.594705
vt 0.725907 0.320216
vt 0.500000 0.594170
vt 0.283407 0.797109
vt 0.716593 0.564071
vt 0.732172 0.464015
vt 0.267828 0.464015
vt 0.267828 0.695907
vt 0.283407 0.564071
vt 0.500000 0.821341
vt 0.500000 0.725408
vt 0.732172 0.695907
vt 0.716593 0.797109
vt 0.957405 0.122755
vt 0.500000 0.407146
vt 0.716593 0.363959
vt 0.957405 0.200888
vt 0.957405 0.014220
vt 0.957405 0.300003
vn -0.254189 0.821995 0.509620
vn -0.000000 0.957520 0.288369
vn -0.445123 0.895460 0.004159
vn -0.000000 0.999947 -0.010328
vn 0.254189 0.821995 0.509620
vn 0.445123 0.895460 0.004159
vn 0.000000 0.470520 -0.882389
vn 0.411836 0.419761 -0.808821
vn -0.018670 0.076998 -0.996856
vn 0.400384 0.058740 -0.914463
vn -0.532485 0.058739 -0.844399
vn -0.411837 0.419761 -0.808821
vn 0.000000 -0.999915 -0.013039
vn 0.000000 -0.965935 0.258786
vn -0.441577 -0.897211 0.004581
vn -0.240912 -0.856945 0.455639
vn -0.276571 -0.123464 0.953030
vn -0.276239 -0.362058 0.890284
vn 0.000000 -0.115282 0.993333
vn 0.000000 -0.570623 0.821212
vn 0.532484 -0.058732 -0.844400
vn 0.411838 -0.419759 -0.808821
vn 0.018670 -0.076989 -0.996857
vn 0.000000 -0.470527 -0.882385
vn -0.904691 -0.426068 -0.000509
vn -0.998855 -0.043091 -0.020760
vn -0.850627 -0.417596 -0.319449
vn -0.857620 -0.061337 -0.510613
vn -0.000000 -0.880286 -0.474443
vn 0.335741 -0.892329 -0.301706
vn 0.392300 -0.919628 -0.019616
vn 0.276239 -0.362058 0.890284
vn 0.276571 -0.123464 0.953030
vn -0.411837 -0.419759 -0.808821
vn -0.400384 -0.058732 -0.914463
vn -0.370443 -0.098561 0.923611
vn 0.000000 -0.123770 0.992311
vn -0.185409 0.218960 0.957956
vn -0.000000 0.438225 0.898865
vn 0.886502 0.053945 -0.459570
vn 0.853559 0.423912 -0.302878
vn 0.999454 0.032970 0.002155
vn 0.936316 0.349787 0.031013
vn 0.370443 -0.098561 0.923611
vn 0.185409 0.218960 0.957956
vn 0.876179 -0.073819 -0.476299
vn 0.998855 -0.043091 -0.020760
vn -0.884704 -0.027619 0.465335
vn -0.999454 0.032970 0.002155
vn -0.880674 -0.082685 0.466450
vn 0.336585 0.894957 -0.292853
vn -0.833114 -0.433391 0.343648
vn 0.850551 -0.360512 0.382875
vn 0.327749 -0.852544 0.407123
vn -0.335741 -0.892329 -0.301706
vn 0.850627 -0.417596 -0.319449
vn -0.812553 0.362821 0.456200
vn 0.812553 0.362821 0.456200
vn -0.336585 0.894957 -0.292852
vn -0.853559 0.423912 -0.302878
vn 0.000000 0.881413 -0.472346
vn 0.869204 -0.493611 0.028875
vn -0.936316 0.349787 0.031013
vn 0.880674 -0.082685 0.466450
vn 0.884704 -0.027619 0.465335
vn -0.904813 0.062990 -0.421124
s 1
f 9/2/1 26/54/2 66/77/3
f 66/77/3 26/54/2 53/80/4
f 10/70/5 54/81/6 26/54/2
f 26/54/2 54/81/6 53/80/4
f 17/23/7 25/33/8 4/1/9
f 4/1/9 25/33/8 46/51/10
f 49/3/11 40/4/12 4/1/9
f 4/1/9 40/4/12 17/23/7
f 60/55/13 12/84/14 55/76/15
f 55/76/15 12/84/14 5/5/16
f 45/58/17 28/6/18 22/83/19
f 22/83/19 28/6/18 43/24/20
f 21/9/21 34/8/22 23/15/23
f 23/15/23 34/8/22 42/25/24
f 64/11/25 59/12/26 33/10/27
f 33/10/27 59/12/26 3/13/28
f 48/72/29 8/74/30 60/55/13
f 60/55/13 8/74/30 56/75/31
f 43/14/20 30/36/32 22/31/19
f 22/31/19 30/36/32 44/30/33
f 42/25/24 7/38/34 23/15/23
f 23/15/23 7/38/34 27/56/35
f 51/66/36 16/86/37 37/44/38
f 37/44/38 16/86/37 2/88/39
f 15/16/40 24/17/41 61/19/42
f 61/19/42 24/17/41 63/18/43
f 19/22/44 38/46/45 16/26/37
f 16/26/37 38/46/45 2/60/39
f 49/3/11 4/1/9 27/56/35
f 27/56/35 4/1/9 23/15/23
f 22/83/19 16/86/37 45/58/17
f 45/58/17 16/86/37 51/66/36
f 52/27/46 15/16/40 58/28/47
f 58/28/47 15/16/40 61/19/42
f 21/9/21 23/15/23 46/51/10
f 46/51/10 23/15/23 4/1/9
f 20/20/48 62/21/49 14/29/50
f 14/29/50 62/21/49 59/12/26
f 19/22/44 16/26/37 44/30/33
f 44/30/33 16/26/37 22/31/19
f 1/32/51 24/17/41 25/33/8
f 5/34/16 28/6/18 29/35/52
f 6/7/53 30/36/32 31/37/54
f 7/38/34 32/39/55 33/10/27
f 8/40/30 34/8/22 35/41/56
f 9/42/1 36/43/57 37/44/38
f 10/45/5 38/46/45 39/47/58
f 11/48/59 40/4/12 41/49/60
f 1/32/51 25/33/8 47/50/61
f 47/50/61 25/33/8 17/23/7
f 17/23/7 40/4/12 47/50/61
f 47/50/61 40/4/12 11/48/59
f 37/44/38 2/88/39 9/42/1
f 9/42/1 2/88/39 26/62/2
f 10/45/5 39/47/58 54/68/6
f 54/68/6 39/47/58 63/18/43
f 24/17/41 15/16/40 25/33/8
f 25/33/8 15/16/40 46/51/10
f 5/34/16 29/35/52 55/69/15
f 55/69/15 29/35/52 64/11/25
f 32/39/55 7/38/34 48/63/29
f 48/63/29 7/38/34 42/25/24
f 8/40/30 35/41/56 56/53/31
f 56/53/31 35/41/56 65/52/62
f 30/36/32 43/14/20 31/37/54
f 31/37/54 43/14/20 12/64/14
f 9/42/1 66/71/3 36/43/57
f 36/43/57 66/71/3 57/67/63
f 6/7/53 13/65/64 30/36/32
f 30/36/32 13/65/64 44/30/33
f 37/44/38 36/43/57 51/66/36
f 51/66/36 36/43/57 20/20/48
f 35/41/56 34/8/22 52/27/46
f 52/27/46 34/8/22 21/9/21
f 33/10/27 3/13/28 7/38/34
f 7/38/34 3/13/28 27/56/35
f 42/25/24 34/8/22 48/63/29
f 48/63/29 34/8/22 8/40/30
f 12/87/14 43/24/20 5/34/16
f 5/34/16 43/24/20 28/6/18
f 38/46/45 10/45/5 2/60/39
f 2/60/39 10/45/5 26/61/2
f 50/57/65 39/47/58 19/22/44
f 19/22/44 39/47/58 38/46/45
f 45/58/17 14/29/50 28/6/18
f 28/6/18 14/29/50 29/35/52
f 41/49/60 40/4/12 18/59/66
f 18/59/66 40/4/12 49/3/11
f 18/59/66 49/3/11 3/13/28
f 3/13/28 49/3/11 27/56/35
f 19/22/44 44/30/33 50/57/65
f 50/57/65 44/30/33 13/65/64
f 51/66/36 20/20/48 45/58/17
f 45/58/17 20/20/48 14/29/50
f 52/27/46 21/9/21 15/16/40
f 15/16/40 21/9/21 46/51/10
f 48/72/29 60/55/13 32/78/55
f 32/78/55 60/55/13 55/76/15
f 47/79/61 11/73/59 53/80/4
f 53/80/4 11/73/59 66/77/3
f 47/79/61 53/80/4 1/82/51
f 1/82/51 53/80/4 54/81/6
f 65/52/62 35/41/56 58/28/47
f 58/28/47 35/41/56 52/27/46
f 60/55/13 56/75/31 12/84/14
f 12/84/14 56/75/31 31/85/54
f 57/67/63 41/49/60 62/21/49
f 62/21/49 41/49/60 18/59/66
f 50/57/65 13/65/64 61/19/42
f 61/19/42 13/65/64 58/28/47
f 62/21/49 18/59/66 59/12/26
f 59/12/26 18/59/66 3/13/28
f 63/18/43 24/17/41 54/68/6
f 54/68/6 24/17/41 1/32/51
f 64/11/25 33/10/27 55/69/15
f 55/69/15 33/10/27 32/39/55
f 56/53/31 65/52/62 31/37/54
f 31/37/54 65/52/62 6/7/53
f 11/48/59 41/49/60 66/71/3
f 66/71/3 41/49/60 57/67/63
f 36/43/57 57/67/63 20/20/48
f 20/20/48 57/67/63 62/21/49
f 64/11/25 29/35/52 59/12/26
f 59/12/26 29/35/52 14/29/50
f 61/19/42 63/18/43 50/57/65
f 50/57/65 63/18/43 39/47/58
f 65/52/62 58/28/47 6/7/53
f 6/7/53 58/28/47 13/65/64
v 0.453607 3.218284 -1.394237
v 0.000000 3.204736 -0.950375
v -0.504636 2.664377 -1.425750
v 0.000000 2.950925 -1.525553
v -0.453607 2.397360 -0.996766
v 0.489993 2.433844 -0.989500
v -0.455750 2.431546 -1.432944
v 0.453607 2.397362 -1.394240
v -0.453607 3.218282 -0.894863
v 0.453607 3.218282 -0.894863
v -0.453607 3.218284 -1.394237
v 0.000000 2.376842 -1.082547
v 0.504625 2.664206 -0.960746
v -0.504625 2.664206 -0.960746
v 0.504636 2.951261 -1.425749
v 0.000000 2.951079 -0.980753
v 0.000000 3.204796 -1.492815
v -0.504636 2.951261 -1.425749
v 0.470461 2.951326 -0.893457
v -0.504631 2.951346 -0.924905
v 0.470566 2.664422 -1.464192
v 0.000000 2.664511 -1.014629
v 0.000000 2.664722 -1.525555
v 0.489993 3.181800 -1.394701
v 0.455750 3.184100 -1.432940
v 0.000000 3.238806 -0.980652
v -0.470566 2.664422 -1.464192
v -0.455600 2.431645 -0.958162
v -0.489993 2.433844 -0.989500
v 0.455600 2.431645 -0.958162
v 0.453607 2.397360 -0.996766
v -0.453607 2.397362 -1.394240
v -0.489993 2.433845 -1.394705
v 0.455750 2.431546 -1.432944
v 0.489993 2.433845 -1.394705
v -0.489993 3.181798 -0.896139
v -0.455654 3.184056 -0.864369
v 0.455654 3.184056 -0.864369
v 0.489993 3.181798 -0.896139
v -0.455750 3.184100 -1.432940
v -0.489993 3.181800 -1.394701
v 0.000000 2.410850 -1.492819
v 0.000000 2.410948 -1.044210
v 0.470416 2.664223 -0.929117
v -0.470416 2.664223 -0.929117
v 0.470566 2.951224 -1.464191
v 0.000000 3.238821 -1.454022
v 0.000000 2.376826 -1.454025
v -0.470566 2.951224 -1.464191
v 0.504631 2.951346 -0.924905
v -0.470461 2.951326 -0.893457
v 0.504636 2.664377 -1.425750
v 0.000000 3.245331 -1.217337
v 0.486233 3.224490 -1.144550
v -0.486233 2.391154 -1.195503
v 0.486233 2.391154 -1.195503
v -0.525235 3.187455 -1.145420
v 0.540925 2.662121 -1.193248
v -0.540925 2.662121 -1.193248
v 0.000000 2.370316 -1.268286
v 0.540929 2.953473 -1.175327
v -0.540929 2.953473 -1.175327
v 0.525235 3.187455 -1.145420
v -0.525235 2.428189 -1.192102
v 0.525235 2.428189 -1.192102
v -0.486233 3.224490 -1.144550
vt 0.449799 0.200888
vt 0.283407 0.594705
vt 0.618333 0.200888
vt 0.618333 0.300003
vt 0.283407 0.363959
vt 0.808196 0.034639
vt 0.141538 0.034639
vt 0.286175 0.034639
vt 0.286175 0.122755
vt 0.642405 0.034639
vt 0.725907 0.034639
vt 0.725907 0.122755
vt 0.642405 0.122755
vt 0.018080 0.034639
vt 0.449799 0.122755
vt 0.267957 0.200888
vt 0.267957 0.300003
vt 0.205474 0.300003
vt 0.205474 0.200888
vt 0.789844 0.200889
vt 0.725907 0.200888
vt 0.125562 0.200889
vt 0.449799 0.300003
vt 0.957405 0.034639
vt 0.449799 0.034639
vt 0.018080 0.200888
vt 0.267957 0.122755
vt 0.205474 0.122755
vt 0.789844 0.122755
vt 0.125562 0.122755
vt 0.018080 0.122755
vt 0.273036 0.320216
vt 0.286175 0.300003
vt 0.791762 0.014220
vt 0.789844 0.034639
vt 0.125562 0.034639
vt 0.139618 0.014220
vt 0.618333 0.034639
vt 0.625766 0.014220
vt 0.273036 0.014220
vt 0.267957 0.034639
vt 0.793543 0.320216
vt 0.789844 0.300003
vt 0.808196 0.300003
vt 0.137840 0.320216
vt 0.125562 0.300003
vt 0.141538 0.300003
vt 0.625766 0.320216
vt 0.642405 0.300003
vt 0.449799 0.320216
vt 0.286175 0.200888
vt 0.205474 0.034639
vt 0.205474 0.014220
vt 0.500000 0.629476
vt 0.500000 0.500658
vt 0.618333 0.122755
vt 0.141538 0.200889
vt 0.808196 0.122755
vt 0.642405 0.200888
vt 0.018080 0.300003
vt 0.018080 0.320216
vt 0.957405 0.320216
vt 0.449799 0.014220
vt 0.018080 0.014220
vt 0.141538 0.122755
vt 0.808196 0.200889
vt 0.725907 0.300003
vt 0.205474 0.320216
vt 0.725907 0.014220
vt 0.716593 0.594705
vt 0.725907 0.320216
vt 0.500000 0.594170
vt 0.283407 0.797109
vt 0.716593 0.564071
vt 0.732172 0.464015
vt 0.267828 0.464015
vt 0.267828 0.695907
vt 0.283407 0.564071
vt 0.500000 0.821341
vt 0.500000 0.725408
vt 0.732172 0.695907
vt 0.716593 0.797109
vt 0.957405 0.122755
vt 0.500000 0.407146
vt 0.716593 0.363959
vt 0.957405 0.200888
vt 0.957405 0.014220
vt 0.957405 0.300003
vn -0.254189 0.821995 0.509620
vn -0.000000 0.957520 0.288369
vn -0.445123 0.895460 0.004159
vn -0.000000 0.999947 -0.010328
vn 0.254189 0.821995 0.509620
vn 0.445123 0.895460 0.004159
vn 0.000000 0.470520 -0.882389
vn 0.411836 0.419761 -0.808821
vn -0.018670 0.076998 -0.996856
vn 0.400384 0.058740 -0.914463
vn -0.532485 0.058739 -0.844399
vn -0.411837 0.419761 -0.808821
vn 0.000000 -0.999915 -0.013039
vn 0.000000 -0.965935 0.258786
vn -0.441577 -0.897211 0.004581
vn -0.240912 -0.856945 0.455639
vn -0.276571 -0.123464 0.953030
vn -0.276239 -0.362058 0.890284
vn 0.000000 -0.115282 0.993333
vn 0.000000 -0.570623 0.821212
vn 0.532484 -0.058732 -0.844400
vn 0.411838 -0.419759 -0.808821
vn 0.018670 -0.076989 -0.996857
vn 0.000000 -0.470527 -0.882385
vn -0.904691 -0.426068 -0.000509
vn -0.998855 -0.043091 -0.020760
vn -0.850627 -0.417596 -0.319449
vn -0.857620 -0.061337 -0.510613
vn -0.000000 -0.880286 -0.474443
vn 0.335741 -0.892329 -0.301706
vn 0.392300 -0.919628 -0.019616
vn 0.276239 -0.362058 0.890284
vn 0.276571 -0.123464 0.953030
vn -0.411837 -0.419759 -0.808821
vn -0.400384 -0.058732 -0.914463
vn -0.370443 -0.098561 0.923611
vn 0.000000 -0.123770 0.992311
vn -0.185409 0.218960 0.957956
vn -0.000000 0.438225 0.898865
vn 0.886502 0.053945 -0.459570
vn 0.853559 0.423912 -0.302878
vn 0.999454 0.032970 0.002155
vn 0.936316 0.349787 0.031013
vn 0.370443 -0.098561 0.923611
vn 0.185409 0.218960 0.957956
vn 0.876179 -0.073819 -0.476299
vn 0.998855 -0.043091 -0.020760
vn -0.884704 -0.027619 0.465335
vn -0.999454 0.032970 0.002155
vn -0.880674 -0.082685 0.466450
vn 0.336585 0.894957 -0.292853
vn -0.833114 -0.433391 0.343648
vn 0.850551 -0.360512 0.382875
vn 0.327749 -0.852544 0.407123
vn -0.335741 -0.892329 -0.301706
vn 0.850627 -0.417596 -0.319449
vn -0.812553 0.362821 0.456200
vn 0.812553 0.362821 0.456200
vn -0.336585 0.894957 -0.292852
vn -0.853559 0.423912 -0.302878
vn 0.000000 0.881413 -0.472346
vn 0.869204 -0.493611 0.028875
vn -0.936316 0.349787 0.031013
vn 0.880674 -0.082685 0.466450
vn 0.884704 -0.027619 0.465335
vn -0.904813 0.062990 -0.421124
s 1
f 75/90/67 92/142/68 132/165/69
f 132/165/69 92/142/68 119/168/70
f 76/158/71 120/169/72 92/142/68
f 92/142/68 120/169/72 119/168/70
f 83/111/73 91/121/74 70/89/75
f 70/89/75 91/121/74 112/139/76
f 115/91/77 106/92/78 70/89/75
f 70/89/75 106/92/78 83/111/73
f 126/143/79 78/172/80 121/164/81
f 121/164/81 78/172/80 71/93/82
f 111/146/83 94/94/84 88/171/85
f 88/171/85 94/94/84 109/112/86
f 87/97/87 100/96/88 89/103/89
f 89/103/89 100/96/88 108/113/90
f 130/99/91 125/100/92 99/98/93
f 99/98/93 125/100/92 69/101/94
f 114/160/95 74/162/96 126/143/79
f 126/143/79 74/162/96 122/163/97
f 109/102/86 96/124/98 88/119/85
f 88/119/85 96/124/98 110/118/99
f 108/113/90 73/126/100 89/103/89
f 89/103/89 73/126/100 93/144/101
f 117/154/102 82/174/103 103/132/104
f 103/132/104 82/174/103 68/176/105
f 81/104/106 90/105/107 127/107/108
f 127/107/108 90/105/107 129/106/109
f 85/110/110 104/134/111 82/114/103
f 82/114/103 104/134/111 68/148/105
f 115/91/77 70/89/75 93/144/101
f 93/144/101 70/89/75 89/103/89
f 88/171/85 82/174/103 111/146/83
f 111/146/83 82/174/103 117/154/102
f 118/115/112 81/104/106 124/116/113
f 124/116/113 81/104/106 127/107/108
f 87/97/87 89/103/89 112/139/76
f 112/139/76 89/103/89 70/89/75
f 86/108/114 128/109/115 80/117/116
f 80/117/116 128/109/115 125/100/92
f 85/110/110 82/114/103 110/118/99
f 110/118/99 82/114/103 88/119/85
f 67/120/117 90/105/107 91/121/74
f 71/122/82 94/94/84 95/123/118
f 72/95/119 96/124/98 97/125/120
f 73/126/100 98/127/121 99/98/93
f 74/128/96 100/96/88 101/129/122
f 75/130/67 102/131/123 103/132/104
f 76/133/71 104/134/111 105/135/124
f 77/136/125 106/92/78 107/137/126
f 67/120/117 91/121/74 113/138/127
f 113/138/127 91/121/74 83/111/73
f 83/111/73 106/92/78 113/138/127
f 113/138/127 106/92/78 77/136/125
f 103/132/104 68/176/105 75/130/67
f 75/130/67 68/176/105 92/150/68
f 76/133/71 105/135/124 120/156/72
f 120/156/72 105/135/124 129/106/109
f 90/105/107 81/104/106 91/121/74
f 91/121/74 81/104/106 112/139/76
f 71/122/82 95/123/118 121/157/81
f 121/157/81 95/123/118 130/99/91
f 98/127/121 73/126/100 114/151/95
f 114/151/95 73/126/100 108/113/90
f 74/128/96 101/129/122 122/141/97
f 122/141/97 101/129/122 131/140/128
f 96/124/98 109/102/86 97/125/120
f 97/125/120 109/102/86 78/152/80
f 75/130/67 132/159/69 102/131/123
f 102/131/123 132/159/69 123/155/129
f 72/95/119 79/153/130 96/124/98
f 96/124/98 79/153/130 110/118/99
f 103/132/104 102/131/123 117/154/102
f 117/154/102 102/131/123 86/108/114
f 101/129/122 100/96/88 118/115/112
f 118/115/112 100/96/88 87/97/87
f 99/98/93 69/101/94 73/126/100
f 73/126/100 69/101/94 93/144/101
f 108/113/90 100/96/88 114/151/95
f 114/151/95 100/96/88 74/128/96
f 78/175/80 109/112/86 71/122/82
f 71/122/82 109/112/86 94/94/84
f 104/134/111 76/133/71 68/148/105
f 68/148/105 76/133/71 92/149/68
f 116/145/131 105/135/124 85/110/110
f 85/110/110 105/135/124 104/134/111
f 111/146/83 80/117/116 94/94/84
f 94/94/84 80/117/116 95/123/118
f 107/137/126 106/92/78 84/147/132
f 84/147/132 106/92/78 115/91/77
f 84/147/132 115/91/77 69/101/94
f 69/101/94 115/91/77 93/144/101
f 85/110/110 110/118/99 116/145/131
f 116/145/131 110/118/99 79/153/130
f 117/154/102 86/108/114 111/146/83
f 111/146/83 86/108/114 80/117/116
f 118/115/112 87/97/87 81/104/106
f 81/104/106 87/97/87 112/139/76
f 114/160/95 126/143/79 98/166/121
f 98/166/121 126/143/79 121/164/81
f 113/167/127 77/161/125 119/168/70
f 119/168/70 77/161/125 132/165/69
f 113/167/127 119/168/70 67/170/117
f 67/170/117 119/168/70 120/169/72
f 131/140/128 101/129/122 124/116/113
f 124/116/113 101/129/122 118/115/112
f 126/143/79 122/163/97 78/172/80
f 78/172/80 122/163/97 97/173/120
f 123/155/129 107/137/126 128/109/115
f 128/109/115 107/137/126 84/147/132
f 116/145/131 79/153/130 127/107/108
f 127/107/108 79/153/130 124/116/113
f 128/109/115 84/147/132 125/100/92
f 125/100/92 84/147/132 69/101/94
f 129/106/109 90/105/107 120/156/72
f 120/156/72 90/105/107 67/120/117
f 130/99/91 99/98/93 121/157/81
f 121/157/81 99/98/93 98/127/121
f 122/141/97 131/140/128 97/125/120
f 97/125/120 131/140/128 72/95/119
f 77/136/125 107/137/126 132/159/69
f 132/159/69 107/137/126 123/155/129
f 102/131/123 123/155/129 86/108/114
f 86/108/114 123/155/129 128/109/115
f 130/99/91 95/123/118 125/100/92
f 125/100/92 95/123/118 80/117/116
f 127/107/108 129/106/109 116/145/131
f 116/145/131 129/106/109 105/135/124
f 131/140/128 124/116/113 72/95/119
f 72/95/119 124/116/113 79/153/130
