# This file uses centimeters as units for non-parametric coordinates.

v -0.073267 2.556227 -1.655699
v -0.000000 2.554727 -1.662027
v 0.000000 2.481341 -1.641186
v -0.074112 2.483187 -1.634681
v 0.073267 2.556227 -1.655699
v 0.124496 2.562649 -1.629601
v 0.130888 2.490765 -1.607479
v 0.074112 2.483187 -1.634681
v 0.132155 2.591361 -1.528367
v 0.138921 2.518686 -1.512726
v 0.074894 2.597699 -1.495314
v 0.075614 2.525345 -1.480852
v 0.000000 2.598975 -1.487701
v -0.000000 2.526687 -1.473377
v -0.074894 2.597699 -1.495314
v -0.132155 2.591361 -1.528367
v -0.138921 2.518686 -1.512726
v -0.075614 2.525345 -1.480852
v -0.124496 2.562649 -1.629601
v -0.130888 2.490765 -1.607479
v -0.145991 2.577024 -1.579515
v -0.153865 2.505009 -1.559432
v 0.145991 2.577024 -1.579515
v 0.153865 2.505009 -1.559432
v -0.068032 2.560948 -1.638671
v 0.000000 2.559832 -1.644049
v -0.000000 2.486435 -1.623200
v -0.068908 2.487843 -1.617656
v 0.068032 2.560948 -1.638671
v 0.111434 2.565178 -1.617524
v 0.117642 2.493072 -1.595558
v 0.068908 2.487843 -1.617656
v 0.118075 2.588026 -1.538644
v 0.124694 2.515126 -1.522666
v 0.069099 2.594141 -1.512317
v 0.070075 2.521622 -1.497854
v -0.000000 2.595351 -1.505997
v 0.000000 2.523019 -1.491692
v -0.069099 2.594141 -1.512317
v -0.118075 2.588026 -1.538644
v -0.124694 2.515126 -1.522666
v -0.070075 2.521622 -1.497854
v -0.111434 2.565178 -1.617524
v -0.117642 2.493073 -1.595558
v -0.128445 2.575940 -1.577729
v -0.136268 2.503753 -1.557563
v 0.128445 2.575940 -1.577729
v 0.136268 2.503753 -1.557563
vt 0.227626 0.349996
vt 0.291419 0.350078
vt 0.671582 0.350087
vt 0.708612 0.350078
vt 0.636929 0.350085
vt 0.611723 0.350086
vt 0.574568 0.350078
vt 0.500014 0.350069
vt 0.388308 0.350086
vt 0.425463 0.350078
vt 0.363102 0.350085
vt 0.328449 0.350087
vt 0.227624 0.298913
vt 0.291418 0.298622
vt 0.671581 0.298615
vt 0.708614 0.298622
vt 0.636928 0.298606
vt 0.574568 0.298621
vt 0.611724 0.298611
vt 0.500016 0.298623
vt 0.388306 0.298611
vt 0.425464 0.298621
vt 0.363103 0.298606
vt 0.328450 0.298615
vt 0.227627 0.371854
vt 0.291418 0.371632
vt 0.671580 0.371645
vt 0.708614 0.371632
vt 0.636927 0.371658
vt 0.574567 0.371633
vt 0.611725 0.371651
vt 0.500014 0.371629
vt 0.388306 0.371651
vt 0.425464 0.371633
vt 0.363103 0.371658
vt 0.328451 0.371645
vt 0.291419 0.283105
vt 0.227624 0.282437
vt 0.708612 0.283105
vt 0.671582 0.283094
vt 0.636928 0.283096
vt 0.611722 0.283094
vt 0.574569 0.283104
vt 0.500017 0.283115
vt 0.425462 0.283104
vt 0.388309 0.283094
vt 0.363102 0.283096
vt 0.328449 0.283094
vt 0.772404 0.298913
vt 0.772407 0.371854
vt 0.772407 0.349996
vt 0.772404 0.282437
vn 0.480635 -0.872474 -0.088198
vn 0.073838 -0.965006 -0.251616
vn 0.400640 0.786561 -0.469903
vn 0.078779 0.693529 -0.716108
vn 0.600008 -0.752620 0.271206
vn 0.454202 0.861460 -0.227128
vn -0.493721 -0.706715 0.506748
vn -0.082166 -0.749255 0.657164
vn -0.430629 0.901865 -0.034604
vn -0.079719 0.947563 0.309464
vn -0.582537 -0.809058 0.077947
vn -0.435848 0.829588 -0.349026
vn -0.166810 -0.953771 -0.249989
vn -0.181975 0.703455 -0.687049
vn 0.017494 -0.968134 -0.249822
vn 0.018382 0.692818 -0.720878
vn 0.493722 -0.706718 0.506743
vn 0.430628 0.901866 -0.034604
vn 0.082168 -0.749244 0.657178
vn 0.079717 0.947565 0.309461
vn -0.017461 -0.756710 0.653517
vn -0.016148 0.949245 0.314123
vn -0.480635 -0.872473 -0.088205
vn -0.400637 0.786566 -0.469897
vn 0.167612 -0.703009 0.691147
vn -0.016531 -0.693448 0.720317
vn 0.144593 0.956608 0.252971
vn -0.015457 0.968294 0.249333
vn -0.412550 -0.910629 0.023610
vn -0.077343 -0.949178 -0.305090
vn -0.506931 0.723958 -0.467873
vn -0.081993 0.752475 -0.653497
vn 0.016186 -0.950270 -0.311006
vn 0.017208 0.757765 -0.652301
vn 0.380578 -0.784984 0.488835
vn 0.484625 0.871596 0.073882
vn -0.061014 0.965784 0.252068
vn -0.073488 -0.694226 0.715995
vn 0.081990 0.752463 -0.653512
vn 0.077341 -0.949185 -0.305068
vn 0.423445 -0.829321 0.364583
vn 0.580326 0.809881 -0.085529
vn -0.445265 -0.860000 0.249278
vn -0.596008 0.759395 -0.260946
vn -0.380570 -0.784994 0.488826
vn -0.484626 0.871596 0.073884
vn 0.412555 -0.910627 0.023598
vn 0.506933 0.723954 -0.467878
s 1
f 7/15/1 8/16/2 6/3/3
f 6/3/3 8/16/2 5/4/4
f 24/17/5 7/15/1 23/5/6
f 23/5/6 7/15/1 6/3/3
f 17/21/7 18/22/8 16/9/9
f 16/9/9 18/22/8 15/10/10
f 22/23/11 17/21/7 21/11/12
f 21/11/12 17/21/7 16/9/9
f 4/14/13 1/2/14 3/13/15
f 3/13/15 1/2/14 2/1/16
f 10/19/17 9/6/18 12/18/19
f 12/18/19 9/6/18 11/7/20
f 12/18/19 11/7/20 14/20/21
f 14/20/21 11/7/20 13/8/22
f 20/24/23 19/12/24 4/14/13
f 4/14/13 19/12/24 1/2/14
f 2/51/16 5/4/4 3/49/15
f 3/49/15 5/4/4 8/16/2
f 13/8/22 15/10/10 14/20/21
f 14/20/21 15/10/10 18/22/8
f 22/23/11 21/11/12 20/24/23
f 20/24/23 21/11/12 19/12/24
f 24/17/5 23/5/6 10/19/17
f 10/19/17 23/5/6 9/6/18
f 28/37/25 27/38/26 25/26/27
f 25/26/27 27/38/26 26/25/28
f 34/42/29 36/43/30 33/31/31
f 33/31/31 36/43/30 35/30/32
f 36/43/30 38/44/33 35/30/32
f 35/30/32 38/44/33 37/32/34
f 44/48/35 28/37/25 43/36/36
f 43/36/36 28/37/25 25/26/27
f 26/50/28 27/52/26 29/28/37
f 29/28/37 27/52/26 32/39/38
f 37/32/34 38/44/33 39/34/39
f 39/34/39 38/44/33 42/45/40
f 46/47/41 44/48/35 45/35/42
f 45/35/42 44/48/35 43/36/36
f 48/41/43 34/42/29 47/29/44
f 47/29/44 34/42/29 33/31/31
f 31/40/45 30/27/46 32/39/38
f 32/39/38 30/27/46 29/28/37
f 48/41/43 47/29/44 31/40/45
f 31/40/45 47/29/44 30/27/46
f 41/46/47 40/33/48 42/45/40
f 42/45/40 40/33/48 39/34/39
f 46/47/41 45/35/42 41/46/47
f 41/46/47 45/35/42 40/33/48
f 1/2/14 25/26/27 2/1/16
f 2/1/16 25/26/27 26/25/28
f 6/3/3 5/4/4 30/27/46
f 30/27/46 5/4/4 29/28/37
f 6/3/3 30/27/46 23/5/6
f 23/5/6 30/27/46 47/29/44
f 9/6/18 33/31/31 11/7/20
f 11/7/20 33/31/31 35/30/32
f 11/7/20 35/30/32 13/8/22
f 13/8/22 35/30/32 37/32/34
f 16/9/9 15/10/10 40/33/48
f 40/33/48 15/10/10 39/34/39
f 16/9/9 40/33/48 21/11/12
f 21/11/12 40/33/48 45/35/42
f 19/12/24 43/36/36 1/2/14
f 1/2/14 43/36/36 25/26/27
f 5/4/4 2/51/16 29/28/37
f 29/28/37 2/51/16 26/50/28
f 15/10/10 13/8/22 39/34/39
f 39/34/39 13/8/22 37/32/34
f 19/12/24 21/11/12 43/36/36
f 43/36/36 21/11/12 45/35/42
f 9/6/18 23/5/6 33/31/31
f 33/31/31 23/5/6 47/29/44
f 4/14/13 3/13/15 28/37/25
f 28/37/25 3/13/15 27/38/26
f 7/15/1 31/40/45 8/16/2
f 8/16/2 31/40/45 32/39/38
f 24/17/5 48/41/43 7/15/1
f 7/15/1 48/41/43 31/40/45
f 10/19/17 12/18/19 34/42/29
f 34/42/29 12/18/19 36/43/30
f 12/18/19 14/20/21 36/43/30
f 36/43/30 14/20/21 38/44/33
f 17/21/7 41/46/47 18/22/8
f 18/22/8 41/46/47 42/45/40
f 22/23/11 46/47/41 17/21/7
f 17/21/7 46/47/41 41/46/47
f 20/24/23 4/14/13 44/48/35
f 44/48/35 4/14/13 28/37/25
f 8/16/2 32/39/38 3/49/15
f 3/49/15 32/39/38 27/52/26
f 18/22/8 42/45/40 14/20/21
f 14/20/21 42/45/40 38/44/33
f 22/23/11 20/24/23 46/47/41
f 46/47/41 20/24/23 44/48/35
f 24/17/5 10/19/17 48/41/43
f 48/41/43 10/19/17 34/42/29
v -0.073267 2.556227 -1.655699
v -0.000000 2.554727 -1.662027
v 0.000000 2.481341 -1.641186
v -0.074112 2.483187 -1.634681
v 0.073267 2.556227 -1.655699
v 0.124496 2.562649 -1.629601
v 0.130888 2.490765 -1.607479
v 0.074112 2.483187 -1.634681
v 0.132155 2.591361 -1.528367
v 0.138921 2.518686 -1.512726
v 0.074894 2.597699 -1.495314
v 0.075614 2.525345 -1.480852
v 0.000000 2.598975 -1.487701
v -0.000000 2.526687 -1.473377
v -0.074894 2.597699 -1.495314
v -0.132155 2.591361 -1.528367
v -0.138921 2.518686 -1.512726
v -0.075614 2.525345 -1.480852
v -0.124496 2.562649 -1.629601
v -0.130888 2.490765 -1.607479
v -0.145991 2.577024 -1.579515
v -0.153865 2.505009 -1.559432
v 0.145991 2.577024 -1.579515
v 0.153865 2.505009 -1.559432
v -0.068032 2.560948 -1.638671
v 0.000000 2.559832 -1.644049
v -0.000000 2.486435 -1.623200
v -0.068908 2.487843 -1.617656
v 0.068032 2.560948 -1.638671
v 0.111434 2.565178 -1.617524
v 0.117642 2.493072 -1.595558
v 0.068908 2.487843 -1.617656
v 0.118075 2.588026 -1.538644
v 0.124694 2.515126 -1.522666
v 0.069099 2.594141 -1.512317
v 0.070075 2.521622 -1.497854
v -0.000000 2.595351 -1.505997
v 0.000000 2.523019 -1.491692
v -0.069099 2.594141 -1.512317
v -0.118075 2.588026 -1.538644
v -0.124694 2.515126 -1.522666
v -0.070075 2.521622 -1.497854
v -0.111434 2.565178 -1.617524
v -0.117642 2.493073 -1.595558
v -0.128445 2.575940 -1.577729
v -0.136268 2.503753 -1.557563
v 0.128445 2.575940 -1.577729
v 0.136268 2.503753 -1.557563
vt 0.227626 0.349996
vt 0.291419 0.350078
vt 0.671582 0.350087
vt 0.708612 0.350078
vt 0.636929 0.350085
vt 0.611723 0.350086
vt 0.574568 0.350078
vt 0.500014 0.350069
vt 0.388308 0.350086
vt 0.425463 0.350078
vt 0.363102 0.350085
vt 0.328449 0.350087
vt 0.227624 0.298913
vt 0.291418 0.298622
vt 0.671581 0.298615
vt 0.708614 0.298622
vt 0.636928 0.298606
vt 0.574568 0.298621
vt 0.611724 0.298611
vt 0.500016 0.298623
vt 0.388306 0.298611
vt 0.425464 0.298621
vt 0.363103 0.298606
vt 0.328450 0.298615
vt 0.227627 0.371854
vt 0.291418 0.371632
vt 0.671580 0.371645
vt 0.708614 0.371632
vt 0.636927 0.371658
vt 0.574567 0.371633
vt 0.611725 0.371651
vt 0.500014 0.371629
vt 0.388306 0.371651
vt 0.425464 0.371633
vt 0.363103 0.371658
vt 0.328451 0.371645
vt 0.291419 0.283105
vt 0.227624 0.282437
vt 0.708612 0.283105
vt 0.671582 0.283094
vt 0.636928 0.283096
vt 0.611722 0.283094
vt 0.574569 0.283104
vt 0.500017 0.283115
vt 0.425462 0.283104
vt 0.388309 0.283094
vt 0.363102 0.283096
vt 0.328449 0.283094
vt 0.772404 0.298913
vt 0.772407 0.371854
vt 0.772407 0.349996
vt 0.772404 0.282437
vn 0.480635 -0.872474 -0.088198
vn 0.073838 -0.965006 -0.251616
vn 0.400640 0.786561 -0.469903
vn 0.078779 0.693529 -0.716108
vn 0.600008 -0.752620 0.271206
vn 0.454202 0.861460 -0.227128
vn -0.493721 -0.706715 0.506748
vn -0.082166 -0.749255 0.657164
vn -0.430629 0.901865 -0.034604
vn -0.079719 0.947563 0.309464
vn -0.582537 -0.809058 0.077947
vn -0.435848 0.829588 -0.349026
vn -0.166810 -0.953771 -0.249989
vn -0.181975 0.703455 -0.687049
vn 0.017494 -0.968134 -0.249822
vn 0.018382 0.692818 -0.720878
vn 0.493722 -0.706718 0.506743
vn 0.430628 0.901866 -0.034604
vn 0.082168 -0.749244 0.657178
vn 0.079717 0.947565 0.309461
vn -0.017461 -0.756710 0.653517
vn -0.016148 0.949245 0.314123
vn -0.480635 -0.872473 -0.088205
vn -0.400637 0.786566 -0.469897
vn 0.167612 -0.703009 0.691147
vn -0.016531 -0.693448 0.720317
vn 0.144593 0.956608 0.252971
vn -0.015457 0.968294 0.249333
vn -0.412550 -0.910629 0.023610
vn -0.077343 -0.949178 -0.305090
vn -0.506931 0.723958 -0.467873
vn -0.081993 0.752475 -0.653497
vn 0.016186 -0.950270 -0.311006
vn 0.017208 0.757765 -0.652301
vn 0.380578 -0.784984 0.488835
vn 0.484625 0.871596 0.073882
vn -0.061014 0.965784 0.252068
vn -0.073488 -0.694226 0.715995
vn 0.081990 0.752463 -0.653512
vn 0.077341 -0.949185 -0.305068
vn 0.423445 -0.829321 0.364583
vn 0.580326 0.809881 -0.085529
vn -0.445265 -0.860000 0.249278
vn -0.596008 0.759395 -0.260946
vn -0.380570 -0.784994 0.488826
vn -0.484626 0.871596 0.073884
vn 0.412555 -0.910627 0.023598
vn 0.506933 0.723954 -0.467878
s 1
f 55/67/49 56/68/50 54/55/51
f 54/55/51 56/68/50 53/56/52
f 72/69/53 55/67/49 71/57/54
f 71/57/54 55/67/49 54/55/51
f 65/73/55 66/74/56 64/61/57
f 64/61/57 66/74/56 63/62/58
f 70/75/59 65/73/55 69/63/60
f 69/63/60 65/73/55 64/61/57
f 52/66/61 49/54/62 51/65/63
f 51/65/63 49/54/62 50/53/64
f 58/71/65 57/58/66 60/70/67
f 60/70/67 57/58/66 59/59/68
f 60/70/67 59/59/68 62/72/69
f 62/72/69 59/59/68 61/60/70
f 68/76/71 67/64/72 52/66/61
f 52/66/61 67/64/72 49/54/62
f 50/103/64 53/56/52 51/101/63
f 51/101/63 53/56/52 56/68/50
f 61/60/70 63/62/58 62/72/69
f 62/72/69 63/62/58 66/74/56
f 70/75/59 69/63/60 68/76/71
f 68/76/71 69/63/60 67/64/72
f 72/69/53 71/57/54 58/71/65
f 58/71/65 71/57/54 57/58/66
f 76/89/73 75/90/74 73/78/75
f 73/78/75 75/90/74 74/77/76
f 82/94/77 84/95/78 81/83/79
f 81/83/79 84/95/78 83/82/80
f 84/95/78 86/96/81 83/82/80
f 83/82/80 86/96/81 85/84/82
f 92/100/83 76/89/73 91/88/84
f 91/88/84 76/89/73 73/78/75
f 74/102/76 75/104/74 77/80/85
f 77/80/85 75/104/74 80/91/86
f 85/84/82 86/96/81 87/86/87
f 87/86/87 86/96/81 90/97/88
f 94/99/89 92/100/83 93/87/90
f 93/87/90 92/100/83 91/88/84
f 96/93/91 82/94/77 95/81/92
f 95/81/92 82/94/77 81/83/79
f 79/92/93 78/79/94 80/91/86
f 80/91/86 78/79/94 77/80/85
f 96/93/91 95/81/92 79/92/93
f 79/92/93 95/81/92 78/79/94
f 89/98/95 88/85/96 90/97/88
f 90/97/88 88/85/96 87/86/87
f 94/99/89 93/87/90 89/98/95
f 89/98/95 93/87/90 88/85/96
f 49/54/62 73/78/75 50/53/64
f 50/53/64 73/78/75 74/77/76
f 54/55/51 53/56/52 78/79/94
f 78/79/94 53/56/52 77/80/85
f 54/55/51 78/79/94 71/57/54
f 71/57/54 78/79/94 95/81/92
f 57/58/66 81/83/79 59/59/68
f 59/59/68 81/83/79 83/82/80
f 59/59/68 83/82/80 61/60/70
f 61/60/70 83/82/80 85/84/82
f 64/61/57 63/62/58 88/85/96
f 88/85/96 63/62/58 87/86/87
f 64/61/57 88/85/96 69/63/60
f 69/63/60 88/85/96 93/87/90
f 67/64/72 91/88/84 49/54/62
f 49/54/62 91/88/84 73/78/75
f 53/56/52 50/103/64 77/80/85
f 77/80/85 50/103/64 74/102/76
f 63/62/58 61/60/70 87/86/87
f 87/86/87 61/60/70 85/84/82
f 67/64/72 69/63/60 91/88/84
f 91/88/84 69/63/60 93/87/90
f 57/58/66 71/57/54 81/83/79
f 81/83/79 71/57/54 95/81/92
f 52/66/61 51/65/63 76/89/73
f 76/89/73 51/65/63 75/90/74
f 55/67/49 79/92/93 56/68/50
f 56/68/50 79/92/93 80/91/86
f 72/69/53 96/93/91 55/67/49
f 55/67/49 96/93/91 79/92/93
f 58/71/65 60/70/67 82/94/77
f 82/94/77 60/70/67 84/95/78
f 60/70/67 62/72/69 84/95/78
f 84/95/78 62/72/69 86/96/81
f 65/73/55 89/98/95 66/74/56
f 66/74/56 89/98/95 90/97/88
f 70/75/59 94/99/89 65/73/55
f 65/73/55 94/99/89 89/98/95
f 68/76/71 52/66/61 92/100/83
f 92/100/83 52/66/61 76/89/73
f 56/68/50 80/91/86 51/101/63
f 51/101/63 80/91/86 75/104/74
f 66/74/56 90/97/88 62/72/69
f 62/72/69 90/97/88 86/96/81
f 70/75/59 68/76/71 94/99/89
f 94/99/89 68/76/71 92/100/83
f 72/69/53 58/71/65 96/93/91
f 96/93/91 58/71/65 82/94/77
