# This file uses centimeters as units for non-parametric coordinates.

v -0.024772 2.757765 -1.585746
v -0.015310 2.768212 -1.574443
v -0.028442 2.718675 -1.550476
v -0.017578 2.723476 -1.530849
v 0.017578 2.723476 -1.530849
v 0.028442 2.718675 -1.550476
v -0.028442 2.688820 -1.558618
v -0.017578 2.675421 -1.543955
v 0.017578 2.675421 -1.543955
v 0.028442 2.688821 -1.558618
v -0.028442 2.680574 -1.580781
v -0.017578 2.660294 -1.584609
v 0.017578 2.660294 -1.584609
v 0.028442 2.680574 -1.580781
v -0.028442 2.703842 -1.606819
v -0.017578 2.695760 -1.624297
v 0.017578 2.695760 -1.624297
v 0.028442 2.703842 -1.606819
v -0.028442 2.778142 -1.608661
v -0.017578 2.778914 -1.626358
v 0.017578 2.778914 -1.626358
v 0.028442 2.778142 -1.608661
v -0.028442 2.888809 -1.597210
v -0.017578 2.886855 -1.615214
v 0.017578 2.886855 -1.615214
v 0.028442 2.888809 -1.597211
v -0.028442 2.938713 -1.607964
v -0.017578 2.933025 -1.624763
v 0.017578 2.933025 -1.624763
v 0.028442 2.938713 -1.607964
v 0.015310 3.040386 -1.654113
v -0.024772 3.042824 -1.638915
v -0.015310 3.040386 -1.654113
v 0.024772 3.042824 -1.638915
v 0.015310 2.768212 -1.574442
v 0.024772 2.757765 -1.585746
v -0.028442 2.980366 -1.629175
v -0.017578 2.973458 -1.645459
v 0.017578 2.973458 -1.645459
v 0.028442 2.980366 -1.629175
v -0.130700 2.675011 -1.540303
v 0.130700 2.675011 -1.540303
v -0.169151 2.706358 -1.601423
v 0.130700 2.668918 -1.590741
v -0.169151 2.995156 -1.585135
v 0.169151 2.995156 -1.585135
v -0.169151 2.989063 -1.635573
v 0.169151 2.989063 -1.635573
v -0.092930 2.712508 -1.544833
v 0.131381 2.749948 -1.555514
v 0.092930 2.996565 -1.579146
v -0.131381 2.957658 -1.580605
v 0.092930 2.706416 -1.595271
v -0.131381 2.743855 -1.605952
v -0.092930 2.990472 -1.629584
v 0.131381 2.951566 -1.631043
v -0.169151 2.712451 -1.550984
v 0.169151 2.712451 -1.550984
v -0.130700 2.668918 -1.590741
v 0.169151 2.706358 -1.601423
v -0.130700 3.034062 -1.583676
v 0.130700 3.034062 -1.583676
v -0.130700 3.027970 -1.634114
v 0.130700 3.027970 -1.634114
v -0.131381 2.749948 -1.555514
v 0.092930 2.712508 -1.544833
v 0.131381 2.957658 -1.580605
v -0.092930 2.996565 -1.579146
v 0.131381 2.743855 -1.605952
v -0.092930 2.706416 -1.595271
v -0.131381 2.951566 -1.631043
v 0.092930 2.990472 -1.629584
v 0.088791 2.719384 -1.571250
v -0.088791 2.719384 -1.571250
v -0.088791 2.983596 -1.603167
v 0.121387 2.950502 -1.605328
v 0.121387 2.751012 -1.581230
v -0.121387 2.751012 -1.581230
v -0.121387 2.950502 -1.605328
v 0.088791 2.983596 -1.603167
v 0.000002 3.035537 -1.597524
v 0.000002 3.032700 -1.621015
v 0.000002 3.002144 -1.590296
v 0.000002 2.998545 -1.620083
v 0.000002 2.995157 -1.604563
v 0.028733 3.034062 -1.583676
v -0.028729 3.027970 -1.634114
v -0.028729 2.996565 -1.579146
v 0.028733 2.990472 -1.629584
v -0.028729 2.982779 -1.603068
v -0.028729 3.034062 -1.583676
v 0.028733 3.027970 -1.634114
v 0.028733 2.996565 -1.579146
v -0.028729 2.990472 -1.629584
v 0.028733 2.982779 -1.603068
vt 0.823909 0.562945
vt 0.823980 0.490446
vt 0.813898 0.562943
vt 0.813933 0.490439
vt 0.782262 0.490439
vt 0.782298 0.562943
vt 0.772293 0.562945
vt 0.772221 0.490446
vt 0.824378 0.648161
vt 0.813881 0.652884
vt 0.782315 0.652884
vt 0.772325 0.652884
vt 0.824378 0.678673
vt 0.813499 0.678673
vt 0.782315 0.678967
vt 0.772324 0.678967
vt 0.824377 0.705870
vt 0.813899 0.704609
vt 0.782311 0.704609
vt 0.772302 0.704609
vt 0.784418 0.748384
vt 0.824377 0.747408
vt 0.771831 0.747408
vt 0.824046 0.424992
vt 0.824053 0.365503
vt 0.813965 0.424992
vt 0.813968 0.365504
vt 0.782228 0.365504
vt 0.782231 0.424991
vt 0.772155 0.424991
vt 0.772148 0.365503
vt 0.771831 0.247313
vt 0.772207 0.303385
vt 0.782264 0.303390
vt 0.784423 0.246365
vt 0.823996 0.303385
vt 0.824378 0.247313
vt 0.813949 0.303390
vt 0.811450 0.246365
vt 0.824378 0.678673
vt 0.813499 0.678673
vt 0.821088 0.229529
vt 0.824378 0.678673
vt 0.811476 0.748384
vt 0.821100 0.772467
vt 0.774680 0.772467
vt 0.774692 0.229529
vn -0.957850 0.105775 -0.267088
vn -0.421945 -0.104915 -0.900531
vn 0.965581 -0.158792 -0.206006
vn 0.372505 0.522290 -0.767107
vn -0.495715 0.868216 0.021615
vn -0.429734 0.354383 0.830507
vn 0.458968 0.793948 0.398742
vn 0.430717 0.110506 0.895696
vn -0.688206 0.609492 -0.393563
vn 0.688200 0.337213 -0.642392
vn -0.598969 -0.478233 0.642285
vn 0.598972 -0.596721 0.534000
vn -0.964614 0.188496 0.184360
vn 0.964613 0.242726 -0.102982
vn -0.437286 -0.898653 -0.034700
vn 0.437290 -0.849484 -0.295221
vn -0.887784 0.131570 0.441053
vn 0.870602 0.374591 0.318956
vn -0.516353 -0.466727 -0.718015
vn 0.519873 -0.323267 -0.790715
vn -0.873129 -0.029529 0.486594
vn 0.872695 0.014083 0.488063
vn -0.488716 0.015477 -0.872305
vn 0.488792 0.039861 -0.871489
vn -0.874510 0.053663 0.482029
vn 0.872051 -0.053301 0.486504
vn -0.493348 0.001137 -0.869831
vn 0.493802 -0.057720 -0.867656
vn -0.659984 0.298222 0.689554
vn 0.659985 0.203904 0.723079
vn -0.559703 -0.255039 -0.788471
vn 0.559684 -0.296579 -0.773818
vn -0.999200 0.016683 -0.036359
vn 0.874924 0.171413 0.452908
vn -0.388929 -0.303675 -0.869779
vn 0.388707 -0.228229 -0.892647
vn -0.458529 0.178375 -0.870594
vn -0.319759 0.846081 0.426500
vn 0.495300 0.519648 -0.696164
vn 0.594461 0.775350 0.213188
vn -0.198222 -0.242804 0.949607
vn -0.315057 -0.874739 -0.368200
vn 0.231814 -0.698886 0.676624
vn 0.255916 -0.617665 -0.743638
vn 0.147180 0.571326 0.807419
vn -0.029750 0.920286 0.390113
vn 0.096358 0.636602 -0.765149
vn 0.029741 0.800928 -0.598022
vn 0.604924 -0.378813 -0.700405
vn 0.529842 0.079127 -0.844397
vn 0.649617 -0.139830 0.747292
vn 0.720516 0.452172 0.525735
vn -0.720513 -0.313977 0.618288
vn -0.649617 0.313755 0.692499
vn -0.529839 -0.277918 -0.801269
vn -0.604928 0.201138 -0.770458
vn -0.080949 0.569762 0.817813
vn 0.167813 0.616472 0.769286
vn -0.462608 -0.136428 0.876003
vn -0.524204 0.452924 0.721159
vn -0.160994 -0.560997 0.812012
vn -0.132348 -0.298722 0.945119
vn -0.096361 0.800486 0.591555
vn 0.248983 0.545723 0.800121
vn 0.356132 0.375584 0.855632
vn 0.628834 -0.213922 0.747533
vn 0.270263 0.246291 -0.930752
vn -0.302031 0.538376 -0.786720
vn 0.467573 -0.185925 -0.864180
vn 0.519766 0.066147 -0.851744
vn 0.160992 -0.738213 -0.655075
vn 0.302003 -0.534441 -0.789409
vn -0.303608 0.530602 -0.791381
vn -0.349957 -0.020091 -0.936550
vn -0.640777 -0.223255 -0.734549
vn 0.320954 0.945642 -0.052430
vn -0.447804 0.893867 -0.021753
vn -0.945106 0.311280 -0.099394
vn -0.890027 -0.454834 -0.031281
vn 0.945106 0.311280 -0.099395
vn 0.890027 -0.454834 -0.031280
vn -0.256959 -0.959448 0.115899
vn -0.318266 -0.931777 0.174636
vn 0.315058 0.761901 -0.565902
vn -0.231815 0.839903 0.490739
vn 0.092368 -0.235633 0.967443
vn -0.270259 -0.460832 -0.845337
vn 0.318266 -0.931777 0.174640
vn -0.147175 0.362629 -0.920239
vn 0.160994 -0.560994 0.812014
vn -0.160990 -0.738212 -0.655076
vn 0.256959 -0.959447 0.115899
vn 0.000001 -0.445046 0.895507
vn -0.000000 -0.645485 -0.763773
vn 0.000000 -0.992782 0.119936
s 1
f 3/36/1 1/37/2 6/33/3
f 6/33/3 1/37/2 36/32/4
f 1/37/2 3/36/1 2/39/5
f 2/39/5 3/36/1 4/38/6
f 2/39/5 4/38/6 35/35/7
f 35/35/7 4/38/6 5/34/8
f 5/34/8 6/33/3 35/35/7
f 35/35/7 6/33/3 36/32/4
f 7/25/9 3/36/1 10/31/10
f 10/31/10 3/36/1 6/33/3
f 7/25/9 8/27/11 3/36/1
f 3/36/1 8/27/11 4/38/6
f 4/38/6 8/27/11 5/34/8
f 5/34/8 8/27/11 9/28/12
f 5/34/8 9/28/12 6/33/3
f 6/33/3 9/28/12 10/31/10
f 11/24/13 7/25/9 14/30/14
f 14/30/14 7/25/9 10/31/10
f 7/25/9 11/24/13 8/27/11
f 8/27/11 11/24/13 12/26/15
f 8/27/11 12/26/15 9/28/12
f 9/28/12 12/26/15 13/29/16
f 13/29/16 14/30/14 9/28/12
f 9/28/12 14/30/14 10/31/10
f 15/2/17 11/24/13 18/8/18
f 18/8/18 11/24/13 14/30/14
f 15/2/17 16/4/19 11/24/13
f 11/24/13 16/4/19 12/26/15
f 12/26/15 16/4/19 13/29/16
f 13/29/16 16/4/19 17/5/20
f 13/29/16 17/5/20 14/30/14
f 14/30/14 17/5/20 18/8/18
f 19/1/21 15/2/17 22/7/22
f 22/7/22 15/2/17 18/8/18
f 19/1/21 20/3/23 15/2/17
f 15/2/17 20/3/23 16/4/19
f 16/4/19 20/3/23 17/5/20
f 17/5/20 20/3/23 21/6/24
f 17/5/20 21/6/24 18/8/18
f 18/8/18 21/6/24 22/7/22
f 23/9/25 19/1/21 26/12/26
f 26/12/26 19/1/21 22/7/22
f 23/9/25 24/10/27 19/1/21
f 19/1/21 24/10/27 20/3/23
f 20/3/23 24/10/27 21/6/24
f 21/6/24 24/10/27 25/11/28
f 21/6/24 25/11/28 22/7/22
f 22/7/22 25/11/28 26/12/26
f 27/13/29 23/9/25 30/16/30
f 30/16/30 23/9/25 26/12/26
f 27/43/29 28/41/31 23/9/25
f 23/9/25 28/41/31 24/10/27
f 24/10/27 28/41/31 25/11/28
f 25/11/28 28/41/31 29/15/32
f 25/11/28 29/15/32 26/12/26
f 26/12/26 29/15/32 30/16/30
f 37/17/33 27/13/29 40/20/34
f 40/20/34 27/13/29 30/16/30
f 27/40/29 37/17/33 28/14/31
f 28/14/31 37/17/33 38/18/35
f 28/14/31 38/18/35 29/15/32
f 29/15/32 38/18/35 39/19/36
f 39/19/36 40/20/34 29/15/32
f 29/15/32 40/20/34 30/16/30
f 1/42/2 2/39/5 36/47/4
f 36/47/4 2/39/5 35/35/7
f 33/44/37 32/45/38 31/21/39
f 31/21/39 32/45/38 34/46/40
f 31/21/39 39/19/36 33/44/37
f 33/44/37 39/19/36 38/18/35
f 34/23/40 32/22/38 40/20/34
f 40/20/34 32/22/38 37/17/33
f 32/22/38 33/44/37 37/17/33
f 37/17/33 33/44/37 38/18/35
f 39/19/36 31/21/39 40/20/34
f 40/20/34 31/21/39 34/23/40
s 8
f 41//41 59//42 42//43
f 42//43 59//42 44//44
f 91//45 81//46 87//47
f 87//47 81//46 82//48
f 60//49 48//50 58//51
f 58//51 48//50 46//52
f 57//53 45//54 43//55
f 43//55 45//54 47//56
f 42//43 66//57 41//41
f 41//41 66//57 49//58
f 46//52 67//59 58//51
f 58//51 67//59 50//60
f 93//61 51//62 86//63
f 86//63 51//62 62//64
f 57//53 65//65 45//54
f 45//54 65//65 52//66
f 59//42 70//67 44//44
f 44//44 70//67 53//68
f 47//56 71//69 43//55
f 43//55 71//69 54//70
f 94//71 55//72 87//47
f 87//47 55//72 63//73
f 60//49 69//74 48//50
f 48//50 69//74 56//75
f 70//67 74//76 53//68
f 53//68 74//76 73//77
f 69//74 77//78 56//75
f 56//75 77//78 76//79
f 65//65 78//80 52//66
f 52//66 78//80 79//81
f 95//82 80//83 93//61
f 93//61 80//83 51//62
f 41//41 57//53 59//42
f 59//42 57//53 43//55
f 60//49 58//51 44//44
f 44//44 58//51 42//43
f 62//64 46//52 64//84
f 64//84 46//52 48//50
f 47//56 45//54 63//73
f 63//73 45//54 61//85
f 57//53 41//41 65//65
f 65//65 41//41 49//58
f 42//43 58//51 66//57
f 66//57 58//51 50//60
f 46//52 62//64 67//59
f 67//59 62//64 51//62
f 61//85 45//54 68//86
f 68//86 45//54 52//66
f 60//49 44//44 69//74
f 69//74 44//44 53//68
f 59//42 43//55 70//67
f 70//67 43//55 54//70
f 47//56 63//73 71//69
f 71//69 63//73 55//72
f 64//84 48//50 72//87
f 72//87 48//50 56//75
f 66//57 50//60 73//77
f 73//77 50//60 77//78
f 54//70 78//80 70//67
f 70//67 78//80 74//76
f 68//86 52//66 75//88
f 75//88 52//66 79//81
f 51//62 80//83 67//59
f 67//59 80//83 76//79
f 50//60 67//59 77//78
f 77//78 67//59 76//79
f 54//70 71//69 78//80
f 78//80 71//69 79//81
f 92//89 86//63 64//84
f 64//84 86//63 62//64
f 91//45 87//47 61//85
f 61//85 87//47 63//73
f 61//85 68//86 91//45
f 91//45 68//86 88//90
f 64//84 72//87 92//89
f 92//89 72//87 89//91
f 49//58 66//57 74//76
f 74//76 66//57 73//77
f 68//86 75//88 88//90
f 88//90 75//88 90//92
f 72//87 80//83 89//91
f 89//91 80//83 95//82
f 92//89 82//48 86//63
f 86//63 82//48 81//46
f 55//72 94//71 75//88
f 75//88 94//71 90//92
f 69//74 53//68 77//78
f 77//78 53//68 73//77
f 78//80 65//65 74//76
f 74//76 65//65 49//58
f 71//69 55//72 79//81
f 79//81 55//72 75//88
f 80//83 72//87 76//79
f 76//79 72//87 56//75
f 81//46 83//93 86//63
f 86//63 83//93 93//61
f 82//48 84//94 87//47
f 87//47 84//94 94//71
f 93//61 83//93 95//82
f 95//82 83//93 85//95
f 94//71 84//94 90//92
f 90//92 84//94 85//95
f 88//90 83//93 91//45
f 91//45 83//93 81//46
f 89//91 84//94 92//89
f 92//89 84//94 82//48
f 85//95 83//93 90//92
f 90//92 83//93 88//90
f 85//95 84//94 95//82
f 95//82 84//94 89//91
v -0.024772 2.757765 -1.585746
v -0.015310 2.768212 -1.574443
v -0.028442 2.718675 -1.550476
v -0.017578 2.723476 -1.530849
v 0.017578 2.723476 -1.530849
v 0.028442 2.718675 -1.550476
v -0.028442 2.688820 -1.558618
v -0.017578 2.675421 -1.543955
v 0.017578 2.675421 -1.543955
v 0.028442 2.688821 -1.558618
v -0.028442 2.680574 -1.580781
v -0.017578 2.660294 -1.584609
v 0.017578 2.660294 -1.584609
v 0.028442 2.680574 -1.580781
v -0.028442 2.703842 -1.606819
v -0.017578 2.695760 -1.624297
v 0.017578 2.695760 -1.624297
v 0.028442 2.703842 -1.606819
v -0.028442 2.778142 -1.608661
v -0.017578 2.778914 -1.626358
v 0.017578 2.778914 -1.626358
v 0.028442 2.778142 -1.608661
v -0.028442 2.888809 -1.597210
v -0.017578 2.886855 -1.615214
v 0.017578 2.886855 -1.615214
v 0.028442 2.888809 -1.597211
v -0.028442 2.938713 -1.607964
v -0.017578 2.933025 -1.624763
v 0.017578 2.933025 -1.624763
v 0.028442 2.938713 -1.607964
v 0.015310 3.040386 -1.654113
v -0.024772 3.042824 -1.638915
v -0.015310 3.040386 -1.654113
v 0.024772 3.042824 -1.638915
v 0.015310 2.768212 -1.574442
v 0.024772 2.757765 -1.585746
v -0.028442 2.980366 -1.629175
v -0.017578 2.973458 -1.645459
v 0.017578 2.973458 -1.645459
v 0.028442 2.980366 -1.629175
v -0.130700 2.675011 -1.540303
v 0.130700 2.675011 -1.540303
v -0.169151 2.706358 -1.601423
v 0.130700 2.668918 -1.590741
v -0.169151 2.995156 -1.585135
v 0.169151 2.995156 -1.585135
v -0.169151 2.989063 -1.635573
v 0.169151 2.989063 -1.635573
v -0.092930 2.712508 -1.544833
v 0.131381 2.749948 -1.555514
v 0.092930 2.996565 -1.579146
v -0.131381 2.957658 -1.580605
v 0.092930 2.706416 -1.595271
v -0.131381 2.743855 -1.605952
v -0.092930 2.990472 -1.629584
v 0.131381 2.951566 -1.631043
v -0.169151 2.712451 -1.550984
v 0.169151 2.712451 -1.550984
v -0.130700 2.668918 -1.590741
v 0.169151 2.706358 -1.601423
v -0.130700 3.034062 -1.583676
v 0.130700 3.034062 -1.583676
v -0.130700 3.027970 -1.634114
v 0.130700 3.027970 -1.634114
v -0.131381 2.749948 -1.555514
v 0.092930 2.712508 -1.544833
v 0.131381 2.957658 -1.580605
v -0.092930 2.996565 -1.579146
v 0.131381 2.743855 -1.605952
v -0.092930 2.706416 -1.595271
v -0.131381 2.951566 -1.631043
v 0.092930 2.990472 -1.629584
v 0.088791 2.719384 -1.571250
v -0.088791 2.719384 -1.571250
v -0.088791 2.983596 -1.603167
v 0.121387 2.950502 -1.605328
v 0.121387 2.751012 -1.581230
v -0.121387 2.751012 -1.581230
v -0.121387 2.950502 -1.605328
v 0.088791 2.983596 -1.603167
v 0.000002 3.035537 -1.597524
v 0.000002 3.032700 -1.621015
v 0.000002 3.002144 -1.590296
v 0.000002 2.998545 -1.620083
v 0.000002 2.995157 -1.604563
v 0.028733 3.034062 -1.583676
v -0.028729 3.027970 -1.634114
v -0.028729 2.996565 -1.579146
v 0.028733 2.990472 -1.629584
v -0.028729 2.982779 -1.603068
v -0.028729 3.034062 -1.583676
v 0.028733 3.027970 -1.634114
v 0.028733 2.996565 -1.579146
v -0.028729 2.990472 -1.629584
v 0.028733 2.982779 -1.603068
vt 0.823909 0.562945
vt 0.823980 0.490446
vt 0.813898 0.562943
vt 0.813933 0.490439
vt 0.782262 0.490439
vt 0.782298 0.562943
vt 0.772293 0.562945
vt 0.772221 0.490446
vt 0.824378 0.648161
vt 0.813881 0.652884
vt 0.782315 0.652884
vt 0.772325 0.652884
vt 0.824378 0.678673
vt 0.813499 0.678673
vt 0.782315 0.678967
vt 0.772324 0.678967
vt 0.824377 0.705870
vt 0.813899 0.704609
vt 0.782311 0.704609
vt 0.772302 0.704609
vt 0.784418 0.748384
vt 0.824377 0.747408
vt 0.771831 0.747408
vt 0.824046 0.424992
vt 0.824053 0.365503
vt 0.813965 0.424992
vt 0.813968 0.365504
vt 0.782228 0.365504
vt 0.782231 0.424991
vt 0.772155 0.424991
vt 0.772148 0.365503
vt 0.771831 0.247313
vt 0.772207 0.303385
vt 0.782264 0.303390
vt 0.784423 0.246365
vt 0.823996 0.303385
vt 0.824378 0.247313
vt 0.813949 0.303390
vt 0.811450 0.246365
vt 0.824378 0.678673
vt 0.813499 0.678673
vt 0.821088 0.229529
vt 0.824378 0.678673
vt 0.811476 0.748384
vt 0.821100 0.772467
vt 0.774680 0.772467
vt 0.774692 0.229529
vn -0.957850 0.105775 -0.267088
vn -0.421945 -0.104915 -0.900531
vn 0.965581 -0.158792 -0.206006
vn 0.372505 0.522290 -0.767107
vn -0.495715 0.868216 0.021615
vn -0.429734 0.354383 0.830507
vn 0.458968 0.793948 0.398742
vn 0.430717 0.110506 0.895696
vn -0.688206 0.609492 -0.393563
vn 0.688200 0.337213 -0.642392
vn -0.598969 -0.478233 0.642285
vn 0.598972 -0.596721 0.534000
vn -0.964614 0.188496 0.184360
vn 0.964613 0.242726 -0.102982
vn -0.437286 -0.898653 -0.034700
vn 0.437290 -0.849484 -0.295221
vn -0.887784 0.131570 0.441053
vn 0.870602 0.374591 0.318956
vn -0.516353 -0.466727 -0.718015
vn 0.519873 -0.323267 -0.790715
vn -0.873129 -0.029529 0.486594
vn 0.872695 0.014083 0.488063
vn -0.488716 0.015477 -0.872305
vn 0.488792 0.039861 -0.871489
vn -0.874510 0.053663 0.482029
vn 0.872051 -0.053301 0.486504
vn -0.493348 0.001137 -0.869831
vn 0.493802 -0.057720 -0.867656
vn -0.659984 0.298222 0.689554
vn 0.659985 0.203904 0.723079
vn -0.559703 -0.255039 -0.788471
vn 0.559684 -0.296579 -0.773818
vn -0.999200 0.016683 -0.036359
vn 0.874924 0.171413 0.452908
vn -0.388929 -0.303675 -0.869779
vn 0.388707 -0.228229 -0.892647
vn -0.458529 0.178375 -0.870594
vn -0.319759 0.846081 0.426500
vn 0.495300 0.519648 -0.696164
vn 0.594461 0.775350 0.213188
vn -0.198222 -0.242804 0.949607
vn -0.315057 -0.874739 -0.368200
vn 0.231814 -0.698886 0.676624
vn 0.255916 -0.617665 -0.743638
vn 0.147180 0.571326 0.807419
vn -0.029750 0.920286 0.390113
vn 0.096358 0.636602 -0.765149
vn 0.029741 0.800928 -0.598022
vn 0.604924 -0.378813 -0.700405
vn 0.529842 0.079127 -0.844397
vn 0.649617 -0.139830 0.747292
vn 0.720516 0.452172 0.525735
vn -0.720513 -0.313977 0.618288
vn -0.649617 0.313755 0.692499
vn -0.529839 -0.277918 -0.801269
vn -0.604928 0.201138 -0.770458
vn -0.080949 0.569762 0.817813
vn 0.167813 0.616472 0.769286
vn -0.462608 -0.136428 0.876003
vn -0.524204 0.452924 0.721159
vn -0.160994 -0.560997 0.812012
vn -0.132348 -0.298722 0.945119
vn -0.096361 0.800486 0.591555
vn 0.248983 0.545723 0.800121
vn 0.356132 0.375584 0.855632
vn 0.628834 -0.213922 0.747533
vn 0.270263 0.246291 -0.930752
vn -0.302031 0.538376 -0.786720
vn 0.467573 -0.185925 -0.864180
vn 0.519766 0.066147 -0.851744
vn 0.160992 -0.738213 -0.655075
vn 0.302003 -0.534441 -0.789409
vn -0.303608 0.530602 -0.791381
vn -0.349957 -0.020091 -0.936550
vn -0.640777 -0.223255 -0.734549
vn 0.320954 0.945642 -0.052430
vn -0.447804 0.893867 -0.021753
vn -0.945106 0.311280 -0.099394
vn -0.890027 -0.454834 -0.031281
vn 0.945106 0.311280 -0.099395
vn 0.890027 -0.454834 -0.031280
vn -0.256959 -0.959448 0.115899
vn -0.318266 -0.931777 0.174636
vn 0.315058 0.761901 -0.565902
vn -0.231815 0.839903 0.490739
vn 0.092368 -0.235633 0.967443
vn -0.270259 -0.460832 -0.845337
vn 0.318266 -0.931777 0.174640
vn -0.147175 0.362629 -0.920239
vn 0.160994 -0.560994 0.812014
vn -0.160990 -0.738212 -0.655076
vn 0.256959 -0.959447 0.115899
vn 0.000001 -0.445046 0.895507
vn -0.000000 -0.645485 -0.763773
vn 0.000000 -0.992782 0.119936
s 1
f 98/83/96 96/84/97 101/80/98
f 101/80/98 96/84/97 131/79/99
f 96/84/97 98/83/96 97/86/100
f 97/86/100 98/83/96 99/85/101
f 97/86/100 99/85/101 130/82/102
f 130/82/102 99/85/101 100/81/103
f 100/81/103 101/80/98 130/82/102
f 130/82/102 101/80/98 131/79/99
f 102/72/104 98/83/96 105/78/105
f 105/78/105 98/83/96 101/80/98
f 102/72/104 103/74/106 98/83/96
f 98/83/96 103/74/106 99/85/101
f 99/85/101 103/74/106 100/81/103
f 100/81/103 103/74/106 104/75/107
f 100/81/103 104/75/107 101/80/98
f 101/80/98 104/75/107 105/78/105
f 106/71/108 102/72/104 109/77/109
f 109/77/109 102/72/104 105/78/105
f 102/72/104 106/71/108 103/74/106
f 103/74/106 106/71/108 107/73/110
f 103/74/106 107/73/110 104/75/107
f 104/75/107 107/73/110 108/76/111
f 108/76/111 109/77/109 104/75/107
f 104/75/107 109/77/109 105/78/105
f 110/49/112 106/71/108 113/55/113
f 113/55/113 106/71/108 109/77/109
f 110/49/112 111/51/114 106/71/108
f 106/71/108 111/51/114 107/73/110
f 107/73/110 111/51/114 108/76/111
f 108/76/111 111/51/114 112/52/115
f 108/76/111 112/52/115 109/77/109
f 109/77/109 112/52/115 113/55/113
f 114/48/116 110/49/112 117/54/117
f 117/54/117 110/49/112 113/55/113
f 114/48/116 115/50/118 110/49/112
f 110/49/112 115/50/118 111/51/114
f 111/51/114 115/50/118 112/52/115
f 112/52/115 115/50/118 116/53/119
f 112/52/115 116/53/119 113/55/113
f 113/55/113 116/53/119 117/54/117
f 118/56/120 114/48/116 121/59/121
f 121/59/121 114/48/116 117/54/117
f 118/56/120 119/57/122 114/48/116
f 114/48/116 119/57/122 115/50/118
f 115/50/118 119/57/122 116/53/119
f 116/53/119 119/57/122 120/58/123
f 116/53/119 120/58/123 117/54/117
f 117/54/117 120/58/123 121/59/121
f 122/60/124 118/56/120 125/63/125
f 125/63/125 118/56/120 121/59/121
f 122/90/124 123/88/126 118/56/120
f 118/56/120 123/88/126 119/57/122
f 119/57/122 123/88/126 120/58/123
f 120/58/123 123/88/126 124/62/127
f 120/58/123 124/62/127 121/59/121
f 121/59/121 124/62/127 125/63/125
f 132/64/128 122/60/124 135/67/129
f 135/67/129 122/60/124 125/63/125
f 122/87/124 132/64/128 123/61/126
f 123/61/126 132/64/128 133/65/130
f 123/61/126 133/65/130 124/62/127
f 124/62/127 133/65/130 134/66/131
f 134/66/131 135/67/129 124/62/127
f 124/62/127 135/67/129 125/63/125
f 96/89/97 97/86/100 131/94/99
f 131/94/99 97/86/100 130/82/102
f 128/91/132 127/92/133 126/68/134
f 126/68/134 127/92/133 129/93/135
f 126/68/134 134/66/131 128/91/132
f 128/91/132 134/66/131 133/65/130
f 129/70/135 127/69/133 135/67/129
f 135/67/129 127/69/133 132/64/128
f 127/69/133 128/91/132 132/64/128
f 132/64/128 128/91/132 133/65/130
f 134/66/131 126/68/134 135/67/129
f 135/67/129 126/68/134 129/70/135
s 8
f 136//136 154//137 137//138
f 137//138 154//137 139//139
f 186//140 176//141 182//142
f 182//142 176//141 177//143
f 155//144 143//145 153//146
f 153//146 143//145 141//147
f 152//148 140//149 138//150
f 138//150 140//149 142//151
f 137//138 161//152 136//136
f 136//136 161//152 144//153
f 141//147 162//154 153//146
f 153//146 162//154 145//155
f 188//156 146//157 181//158
f 181//158 146//157 157//159
f 152//148 160//160 140//149
f 140//149 160//160 147//161
f 154//137 165//162 139//139
f 139//139 165//162 148//163
f 142//151 166//164 138//150
f 138//150 166//164 149//165
f 189//166 150//167 182//142
f 182//142 150//167 158//168
f 155//144 164//169 143//145
f 143//145 164//169 151//170
f 165//162 169//171 148//163
f 148//163 169//171 168//172
f 164//169 172//173 151//170
f 151//170 172//173 171//174
f 160//160 173//175 147//161
f 147//161 173//175 174//176
f 190//177 175//178 188//156
f 188//156 175//178 146//157
f 136//136 152//148 154//137
f 154//137 152//148 138//150
f 155//144 153//146 139//139
f 139//139 153//146 137//138
f 157//159 141//147 159//179
f 159//179 141//147 143//145
f 142//151 140//149 158//168
f 158//168 140//149 156//180
f 152//148 136//136 160//160
f 160//160 136//136 144//153
f 137//138 153//146 161//152
f 161//152 153//146 145//155
f 141//147 157//159 162//154
f 162//154 157//159 146//157
f 156//180 140//149 163//181
f 163//181 140//149 147//161
f 155//144 139//139 164//169
f 164//169 139//139 148//163
f 154//137 138//150 165//162
f 165//162 138//150 149//165
f 142//151 158//168 166//164
f 166//164 158//168 150//167
f 159//179 143//145 167//182
f 167//182 143//145 151//170
f 161//152 145//155 168//172
f 168//172 145//155 172//173
f 149//165 173//175 165//162
f 165//162 173//175 169//171
f 163//181 147//161 170//183
f 170//183 147//161 174//176
f 146//157 175//178 162//154
f 162//154 175//178 171//174
f 145//155 162//154 172//173
f 172//173 162//154 171//174
f 149//165 166//164 173//175
f 173//175 166//164 174//176
f 187//184 181//158 159//179
f 159//179 181//158 157//159
f 186//140 182//142 156//180
f 156//180 182//142 158//168
f 156//180 163//181 186//140
f 186//140 163//181 183//185
f 159//179 167//182 187//184
f 187//184 167//182 184//186
f 144//153 161//152 169//171
f 169//171 161//152 168//172
f 163//181 170//183 183//185
f 183//185 170//183 185//187
f 167//182 175//178 184//186
f 184//186 175//178 190//177
f 187//184 177//143 181//158
f 181//158 177//143 176//141
f 150//167 189//166 170//183
f 170//183 189//166 185//187
f 164//169 148//163 172//173
f 172//173 148//163 168//172
f 173//175 160//160 169//171
f 169//171 160//160 144//153
f 166//164 150//167 174//176
f 174//176 150//167 170//183
f 175//178 167//182 171//174
f 171//174 167//182 151//170
f 176//141 178//188 181//158
f 181//158 178//188 188//156
f 177//143 179//189 182//142
f 182//142 179//189 189//166
f 188//156 178//188 190//177
f 190//177 178//188 180//190
f 189//166 179//189 185//187
f 185//187 179//189 180//190
f 183//185 178//188 186//140
f 186//140 178//188 176//141
f 184//186 179//189 187//184
f 187//184 179//189 177//143
f 180//190 178//188 185//187
f 185//187 178//188 183//185
f 180//190 179//189 190//177
f 190//177 179//189 184//186
